<svg xmlns="http://www.w3.org/2000/svg" xmlns:xlink="http://www.w3.org/1999/xlink" viewBox="0 0 283.32 255.92"><defs><style>.cls-1{isolation:isolate;}.cls-2,.cls-3,.cls-4{fill:none;stroke-linecap:round;stroke-linejoin:round;}.cls-10,.cls-11,.cls-12,.cls-13,.cls-14,.cls-15,.cls-16,.cls-17,.cls-18,.cls-19,.cls-2,.cls-20,.cls-21,.cls-22,.cls-3,.cls-4,.cls-6,.cls-7,.cls-8,.cls-9{stroke:#25ffeb;}.cls-2,.cls-4{stroke-width:1px;}.cls-3{stroke-width:0.58px;}.cls-10,.cls-11,.cls-12,.cls-13,.cls-14,.cls-15,.cls-16,.cls-17,.cls-18,.cls-19,.cls-20,.cls-21,.cls-22,.cls-3,.cls-4,.cls-5,.cls-6,.cls-9{mix-blend-mode:color-dodge;}.cls-6{fill:#001a2b;}.cls-10,.cls-11,.cls-12,.cls-13,.cls-14,.cls-15,.cls-16,.cls-17,.cls-18,.cls-19,.cls-20,.cls-21,.cls-22,.cls-6,.cls-7,.cls-8,.cls-9{stroke-miterlimit:10;}.cls-7{fill:#614b94;}.cls-8{font-size:33.38px;fill:#fff;font-family:SegoeUI, Segoe UI;}.cls-9{fill:url(#radial-gradient);}.cls-10{fill:url(#radial-gradient-2);}.cls-11{fill:url(#radial-gradient-3);}.cls-12{fill:url(#radial-gradient-4);}.cls-13{fill:url(#radial-gradient-5);}.cls-14{fill:url(#radial-gradient-6);}.cls-15{fill:url(#radial-gradient-7);}.cls-16{fill:url(#radial-gradient-8);}.cls-17{fill:url(#radial-gradient-9);}.cls-18{fill:url(#radial-gradient-10);}.cls-19{fill:url(#radial-gradient-11);}.cls-20{fill:url(#radial-gradient-12);}.cls-21{fill:url(#radial-gradient-13);}.cls-22{fill:url(#radial-gradient-14);}</style><radialGradient id="radial-gradient" cx="53.24" cy="177.81" r="5.77" gradientUnits="userSpaceOnUse"><stop offset="0" stop-color="#fff"/><stop offset="1"/></radialGradient><radialGradient id="radial-gradient-2" cx="237.45" cy="194.39" r="5.77" xlink:href="#radial-gradient"/><radialGradient id="radial-gradient-3" cx="220.98" cy="17.09" r="5.77" xlink:href="#radial-gradient"/><radialGradient id="radial-gradient-4" cx="27.65" cy="26.79" r="5.77" xlink:href="#radial-gradient"/><radialGradient id="radial-gradient-5" cx="14.43" cy="173.29" r="5.77" xlink:href="#radial-gradient"/><radialGradient id="radial-gradient-6" cx="272.05" cy="218.12" r="5.77" xlink:href="#radial-gradient"/><radialGradient id="radial-gradient-7" cx="83.87" cy="188.71" r="2.77" xlink:href="#radial-gradient"/><radialGradient id="radial-gradient-8" cx="205.17" cy="182.49" r="2.77" xlink:href="#radial-gradient"/><radialGradient id="radial-gradient-9" cx="205.17" cy="52.88" r="2.77" xlink:href="#radial-gradient"/><radialGradient id="radial-gradient-10" cx="27.6" cy="207.59" r="2.77" xlink:href="#radial-gradient"/><radialGradient id="radial-gradient-11" cx="280.05" cy="177.14" r="2.77" xlink:href="#radial-gradient"/><radialGradient id="radial-gradient-12" cx="235.74" cy="52.88" r="2.77" xlink:href="#radial-gradient"/><radialGradient id="radial-gradient-13" cx="72.31" cy="42.94" r="2.77" xlink:href="#radial-gradient"/><radialGradient id="radial-gradient-14" cx="65.45" cy="18.86" r="2.77" xlink:href="#radial-gradient"/></defs><title>Machine learning_2</title><g class="cls-1"><g id="Layer_2" data-name="Layer 2"><g id="OBJECTS"><polyline class="cls-2" points="97.73 152.45 66.62 152.45 57.59 161.49 2.73 161.49"/><polyline class="cls-2" points="97.73 144.42 51.23 144.42 43.42 136.61 2.73 136.61"/><line class="cls-2" x1="48.56" y1="151.11" x2="2.73" y2="151.11"/><polyline class="cls-2" points="97.73 135.16 59.26 135.16 46.84 122.73 2.06 122.73"/><polyline class="cls-2" points="2.73 111.67 52.07 111.67 66.62 126.22 97.56 126.22"/><line class="cls-2" x1="97.56" y1="116.32" x2="72.31" y2="116.32"/><polyline class="cls-2" points="97.56 107.63 61.6 107.63 46.58 92.61 1.39 92.61"/><line class="cls-2" x1="97.56" y1="97.93" x2="76.99" y2="97.93"/><line class="cls-2" x1="65.45" y1="96.34" x2="47.3" y2="78.19"/><polyline class="cls-2" points="97.56 88.89 72.31 88.89 51.02 67.6 2.73 67.6"/><line class="cls-2" x1="97.73" y1="78.19" x2="72.31" y2="78.19"/><line class="cls-2" x1="92.02" y1="31.14" x2="92.02" y2="3.04"/><line class="cls-2" x1="101.05" y1="71.28" x2="101.05" y2="40.17"/><polyline class="cls-2" points="109.08 71.28 109.08 24.79 116.89 16.98 116.89 3.04"/><line class="cls-2" x1="102.39" y1="22.11" x2="102.39" y2="3.04"/><polyline class="cls-2" points="118.34 71.28 118.34 32.81 130.77 20.39 130.77 3.38"/><line class="cls-2" x1="127.28" y1="40.17" x2="127.28" y2="71.12"/><line class="cls-2" x1="147.44" y1="3.04" x2="147.44" y2="21.94"/><polyline class="cls-2" points="137.18 71.12 137.18 45.86 137.18 3.04"/><polyline class="cls-2" points="145.88 71.12 145.88 35.16 160.9 20.14 160.9 3.38"/><line class="cls-2" x1="155.58" y1="71.12" x2="155.58" y2="50.54"/><polyline class="cls-2" points="157.16 39 175.31 20.86 175.31 3.04"/><polyline class="cls-2" points="164.61 71.12 164.61 45.86 185.9 24.57 185.9 3.04"/><line class="cls-2" x1="175.31" y1="71.28" x2="175.31" y2="45.86"/><polyline class="cls-2" points="177.16 157.07 177.16 188.18 186.19 197.21"/><polyline class="cls-2" points="169.13 157.07 169.13 203.56 161.32 211.38"/><line class="cls-2" x1="175.82" y1="206.24" x2="175.82" y2="255.41"/><polyline class="cls-2" points="159.87 157.07 159.87 195.54 147.44 207.97 147.44 255.41"/><polyline class="cls-2" points="136.38 255.41 136.38 202.73 150.93 188.18 150.93 157.24"/><line class="cls-2" x1="141.03" y1="157.24" x2="141.03" y2="182.49"/><polyline class="cls-2" points="132.33 157.24 132.33 193.19 117.31 208.22 117.31 255.41"/><line class="cls-2" x1="122.63" y1="157.24" x2="122.63" y2="177.81"/><polyline class="cls-2" points="121.04 189.35 102.9 207.5 102.9 255.41"/><polyline class="cls-2" points="113.6 157.24 113.6 182.49 92.31 203.78 92.31 255.41"/><line class="cls-2" x1="102.9" y1="157.07" x2="102.9" y2="182.49"/><polyline class="cls-2" points="182.51 153.75 213.62 153.75 222.66 162.78 270.82 162.78"/><polyline class="cls-2" points="182.51 145.72 229.01 145.72 236.82 137.91 270.82 137.91"/><line class="cls-2" x1="231.68" y1="152.41" x2="270.82" y2="152.41"/><polyline class="cls-2" points="182.51 136.46 220.98 136.46 233.41 124.03 270.49 124.03"/><polyline class="cls-2" points="270.82 112.97 228.17 112.97 213.62 127.52 182.68 127.52"/><line class="cls-2" x1="182.68" y1="117.62" x2="207.93" y2="117.62"/><polyline class="cls-2" points="182.68 108.92 218.64 108.92 233.66 93.9 270.49 93.9"/><line class="cls-2" x1="182.68" y1="99.22" x2="203.25" y2="99.22"/><line class="cls-2" x1="214.79" y1="97.63" x2="232.94" y2="79.49"/><polyline class="cls-2" points="182.68 90.19 207.94 90.19 229.22 68.9 270.82 68.9"/><line class="cls-2" x1="182.51" y1="79.49" x2="207.93" y2="79.49"/><path class="cls-3" d="M169.38,88.69V140.4c-1.64,1.65-2.57,2.57-4.22,4.22H113.45l-4.22-4.22V88.69l4.22-4.22h51.71C166.81,86.11,167.74,87,169.38,88.69Z"/><path class="cls-4" d="M191.73,69.48v90.13c-2.88,2.87-4.49,4.48-7.36,7.36H94.24l-7.36-7.36V69.48c2.88-2.87,4.49-4.48,7.36-7.36h90.13C187.24,65,188.85,66.61,191.73,69.48Z"/><g class="cls-5"><path class="cls-6" d="M179.42,82.46v64.17l-8,8H107.22l-8-8V82.46c3.14-3.13,4.9-4.89,8-8h64.17Z"/></g><path class="cls-7" d="M3.62,122.73a1.56,1.56,0,1,1-1.56-1.56A1.56,1.56,0,0,1,3.62,122.73Z"/><path class="cls-7" d="M3.62,111.67a1.56,1.56,0,1,1-1.56-1.56A1.56,1.56,0,0,1,3.62,111.67Z"/><path class="cls-7" d="M272.05,113a1.56,1.56,0,1,1-1.56-1.56A1.56,1.56,0,0,1,272.05,113Z"/><path class="cls-7" d="M272.05,93.9a1.56,1.56,0,1,1-1.56-1.56A1.56,1.56,0,0,1,272.05,93.9Z"/><path class="cls-7" d="M272.05,68.9a1.56,1.56,0,1,1-1.56-1.56A1.56,1.56,0,0,1,272.05,68.9Z"/><path class="cls-7" d="M187.46,2.06A1.56,1.56,0,1,1,185.9.5,1.56,1.56,0,0,1,187.46,2.06Z"/><path class="cls-7" d="M176.82,2.06A1.56,1.56,0,1,1,175.26.5,1.56,1.56,0,0,1,176.82,2.06Z"/><path class="cls-7" d="M162.46,2.06A1.56,1.56,0,1,1,160.9.5,1.56,1.56,0,0,1,162.46,2.06Z"/><path class="cls-7" d="M149,2.06A1.56,1.56,0,1,1,147.44.5,1.56,1.56,0,0,1,149,2.06Z"/><path class="cls-7" d="M138.74,2.06A1.56,1.56,0,1,1,137.18.5,1.56,1.56,0,0,1,138.74,2.06Z"/><path class="cls-7" d="M132.33,2.06A1.56,1.56,0,1,1,130.77.5,1.56,1.56,0,0,1,132.33,2.06Z"/><path class="cls-7" d="M118.45,2.06A1.56,1.56,0,1,1,116.89.5,1.56,1.56,0,0,1,118.45,2.06Z"/><path class="cls-7" d="M104,2.06A1.56,1.56,0,1,1,102.39.5,1.56,1.56,0,0,1,104,2.06Z"/><path class="cls-7" d="M93.58,2.06A1.57,1.57,0,1,1,92,.5,1.56,1.56,0,0,1,93.58,2.06Z"/><path class="cls-7" d="M272.05,124a1.56,1.56,0,1,1-1.56-1.56A1.56,1.56,0,0,1,272.05,124Z"/><path class="cls-7" d="M272.05,137.91a1.56,1.56,0,1,1-1.56-1.56A1.56,1.56,0,0,1,272.05,137.91Z"/><path class="cls-7" d="M272.05,152.41a1.56,1.56,0,1,1-1.56-1.56A1.56,1.56,0,0,1,272.05,152.41Z"/><path class="cls-7" d="M272.05,162.78a1.56,1.56,0,1,1-1.56-1.56A1.56,1.56,0,0,1,272.05,162.78Z"/><path class="cls-7" d="M3.62,136.61a1.56,1.56,0,1,1-1.56-1.56A1.56,1.56,0,0,1,3.62,136.61Z"/><path class="cls-7" d="M3.62,151.11a1.56,1.56,0,1,1-1.56-1.56A1.56,1.56,0,0,1,3.62,151.11Z"/><path class="cls-7" d="M3.62,161.49a1.56,1.56,0,1,1-1.56-1.56A1.56,1.56,0,0,1,3.62,161.49Z"/><path class="cls-7" d="M3.62,92.61a1.56,1.56,0,1,1-1.56-1.56A1.56,1.56,0,0,1,3.62,92.61Z"/><path class="cls-7" d="M3.62,67.6A1.56,1.56,0,1,1,2.06,66,1.56,1.56,0,0,1,3.62,67.6Z"/><text class="cls-8" transform="translate(123.65 125.64)">Ai</text><circle class="cls-6" cx="109.08" cy="25.7" r="9.6"/><circle class="cls-6" cx="92.58" cy="203.99" r="9.6"/><circle class="cls-6" cx="72.31" cy="78.19" r="9.6"/><circle class="cls-6" cx="175.26" cy="45.86" r="14.75"/><circle class="cls-6" cx="218" cy="108.92" r="14.75" transform="translate(62.18 296.3) rotate(-76.8)"/><circle class="cls-6" cx="169.13" cy="187.37" r="14.75"/><circle class="cls-6" cx="46.31" cy="122.73" r="14.75"/><circle class="cls-9" cx="53.24" cy="177.81" r="5.77"/><circle class="cls-10" cx="237.45" cy="194.39" r="5.77"/><circle class="cls-11" cx="220.98" cy="17.09" r="5.77"/><circle class="cls-12" cx="27.65" cy="26.79" r="5.77"/><circle class="cls-13" cx="14.43" cy="173.29" r="5.77"/><circle class="cls-14" cx="272.05" cy="218.12" r="5.77"/><path class="cls-15" d="M86.64,188.71a2.77,2.77,0,1,1-2.77-2.77A2.77,2.77,0,0,1,86.64,188.71Z"/><path class="cls-16" d="M207.93,182.49a2.77,2.77,0,1,1-2.76-2.77A2.76,2.76,0,0,1,207.93,182.49Z"/><path class="cls-17" d="M207.93,52.88a2.77,2.77,0,1,1-2.76-2.77A2.76,2.76,0,0,1,207.93,52.88Z"/><circle class="cls-18" cx="27.6" cy="207.59" r="2.77"/><path class="cls-19" d="M282.82,177.14a2.77,2.77,0,1,1-2.77-2.77A2.77,2.77,0,0,1,282.82,177.14Z"/><path class="cls-20" d="M238.51,52.88a2.77,2.77,0,1,1-2.77-2.77A2.77,2.77,0,0,1,238.51,52.88Z"/><circle class="cls-21" cx="72.31" cy="42.94" r="2.77"/><path class="cls-22" d="M68.22,18.86a2.77,2.77,0,1,1-2.77-2.76A2.77,2.77,0,0,1,68.22,18.86Z"/></g></g></g></svg>