<?xml version="1.0" encoding="utf-8"?>
<!-- Generator: Adobe Illustrator 23.0.1, SVG Export Plug-In . SVG Version: 6.00 Build 0)  -->
<svg version="1.1" id="Layer_1" xmlns="http://www.w3.org/2000/svg" xmlns:xlink="http://www.w3.org/1999/xlink" x="0px" y="0px"
	 viewBox="0 0 278 278" style="enable-background:new 0 0 278 278;" xml:space="preserve">
<style type="text/css">
	.st0{fill:#0284C7;}
	.st1{opacity:0.7;}
	.st2{fill:#FFFFFF;}
	.st3{opacity:0.2;fill:#263238;enable-background:new    ;}
	.st4{opacity:0.2;enable-background:new    ;}
	.st5{fill:#FFFFFF;stroke:#263238;stroke-miterlimit:10;}
	.st6{fill:#263238;stroke:#FFFFFF;stroke-miterlimit:10;}
	.st7{opacity:0.2;}
	.st8{fill:#0284C7;stroke:#263238;stroke-linecap:round;stroke-linejoin:round;}
	.st9{fill:#263238;}
	.st10{fill:#FFFFFF;filter:url(#Adobe_OpacityMaskFilter);}
	.st11{mask:url(#mask0_1216_35543_1_);}
	.st12{fill:#FF4F00;}
	.st13{opacity:0.5;fill:#FFFFFF;enable-background:new    ;}
	.st14{opacity:0.5;}
	.st15{fill:none;stroke:#263238;stroke-miterlimit:10;}
	.st16{fill:#FFFFFF;filter:url(#Adobe_OpacityMaskFilter_1_);}
	.st17{mask:url(#mask1_1216_35543_1_);}
	.st18{fill:none;stroke:#263238;stroke-linecap:round;stroke-linejoin:round;}
	.st19{fill:#FFFFFF;stroke:#263238;stroke-linecap:round;stroke-linejoin:round;}
	.st20{fill:#757575;stroke:#263238;stroke-linecap:round;stroke-linejoin:round;}
	.st21{fill:#999999;stroke:#263238;stroke-linecap:round;stroke-linejoin:round;}
	.st22{fill:#BFBFBF;stroke:#263238;stroke-linecap:round;stroke-linejoin:round;}
	.st23{opacity:0.1;fill:#FFFFFF;enable-background:new    ;}
	.st24{fill:#FFFFFF;filter:url(#Adobe_OpacityMaskFilter_2_);}
	.st25{mask:url(#mask2_1216_35543_1_);}
</style>
<path class="st0" d="M267.8,136.7c0,5.3-0.6,10.6-1.9,15.8c-0.4,1.7-0.9,3.4-1.5,5.1c-0.2,0.5-0.3,1-0.5,1.4
	c-0.1,0.4-0.3,0.8-0.4,1.2l-0.1,0.3c-0.2,0.4-0.3,0.8-0.5,1.2l-0.1,0.2c-0.2,0.4-0.3,0.8-0.5,1.2l-0.2,0.5c-0.2,0.3-0.3,0.7-0.5,1
	c-0.2,0.3-0.4,0.7-0.5,1.1c-0.1,0.1-0.1,0.3-0.2,0.4l-0.5,0.9l-0.4,0.7c-0.6,1.1-1.2,2.2-1.9,3.2c-0.3,0.4-0.5,0.9-0.8,1.3
	c-0.1,0.1-0.1,0.2-0.2,0.3c-0.3,0.5-0.6,1-1,1.5c-0.3,0.4-0.5,0.8-0.8,1.2l-0.7,1l-0.2,0.2c-0.2,0.4-0.5,0.7-0.8,1.1
	c-0.3,0.4-0.6,0.9-0.9,1.3c-0.1,0.1-0.1,0.2-0.2,0.3c-0.4,0.5-0.7,1-1.1,1.5c-0.2,0.3-0.4,0.6-0.7,0.9c-0.4,0.5-0.8,1.1-1.2,1.6
	c-0.4,0.5-0.8,1-1.2,1.5l-0.1,0.2c-0.4,0.5-0.8,1-1.2,1.5c-0.1,0.1-0.2,0.3-0.4,0.4c-0.4,0.4-0.8,0.9-1.1,1.3
	c-1.1,1.3-2.2,2.6-3.3,3.8c-2.3,2.6-4.6,5.2-6.9,7.7c-2,2.1-3.9,4.2-5.9,6.3c-9.7,9.9-20.2,19.2-31.6,26.6c-1.4,0.9-2.8,1.8-4.3,2.7
	l-1.6,0.9l-0.3,0.2c-0.6,0.3-1.1,0.6-1.6,0.9c-0.5,0.3-1.1,0.6-1.7,0.9l-0.8,0.4c-1.1,0.6-2.2,1.1-3.3,1.7c-0.6,0.3-1.2,0.6-1.8,0.8
	c-0.6,0.3-1.1,0.5-1.7,0.8l-0.7,0.3c-0.5,0.2-1,0.4-1.6,0.6c-1,0.4-2,0.8-3,1.2l-1.2,0.4l-0.7,0.2l-1.1,0.4l-1,0.3h0
	c-0.6,0.2-1.3,0.4-1.9,0.6c-1,0.3-2,0.6-3,0.8c-0.7,0.2-1.3,0.3-2,0.5c-0.7,0.2-1.3,0.3-1.9,0.4l-0.2,0c-0.7,0.1-1.3,0.3-2,0.4
	l-1,0.2l-1,0.2c-0.3,0.1-0.6,0.1-0.9,0.1l-1.1,0.2c-3.9,0.5-7.9,0.7-11.9,0.7H144c-3.6-0.1-7.2-0.3-10.8-0.8l-0.8-0.1l-1.4-0.2
	l-1.1-0.2c-1.5-0.2-3-0.5-4.4-0.8c-0.3-0.1-0.7-0.1-1-0.2c-1-0.2-2-0.4-3-0.7c-0.7-0.2-1.3-0.3-2-0.5l-1-0.3l-1-0.3
	c-1.3-0.4-2.6-0.7-3.9-1.1c-1.5-0.5-3-0.9-4.5-1.5l-1.6-0.6c-1.7-0.6-3.3-1.2-5-1.9l-0.9-0.4l-0.7-0.3l-0.5-0.2
	c-1.1-0.5-2.2-1.1-3.5-1.7l-0.6-0.3c-0.8-0.4-1.6-0.8-2.4-1.3c-1.7-1-3.6-2-5.6-3.2c-22.2-13.1-56.3-37.7-64.3-47
	c-0.4-0.5-0.8-1-1.2-1.4c-0.3-0.4-0.6-0.8-0.9-1.2c-0.3-0.4-0.6-0.7-0.8-1.1c-0.2-0.4-0.5-0.6-0.7-1c-0.2-0.3-0.4-0.6-0.6-0.9l0-0.1
	c-0.3-0.4-0.5-0.7-0.7-1.1c-0.2-0.4-0.5-0.7-0.7-1.1c-0.1-0.2-0.2-0.3-0.3-0.5c-0.2-0.4-0.5-0.8-0.7-1.2c-0.3-0.5-0.5-0.9-0.8-1.4
	c-0.4-0.8-0.9-1.6-1.2-2.4l-0.3-0.6c-0.8-1.7-1.5-3.4-2.1-5.2c-0.2-0.6-0.4-1.2-0.6-1.8c-0.2-0.8-0.5-1.6-0.7-2.4
	c0-0.2-0.1-0.3-0.1-0.5c-0.1-0.4-0.2-0.8-0.3-1.3c-0.1-0.6-0.2-1.2-0.3-1.8c0-0.1-0.1-0.3-0.1-0.4c-0.1-0.3-0.1-0.6-0.1-0.9
	c0-0.3-0.1-0.7-0.1-1.1c0-0.1,0-0.3,0-0.4c0-0.3-0.1-0.6-0.1-0.9c0,0,0-0.1,0-0.1c0-0.4,0-0.8-0.1-1.1c0,0,0-0.1,0-0.1
	c0-0.4,0-0.8,0-1.2v-1.1c0-0.6,0-1.2,0.1-1.7c0-0.4,0.1-0.8,0.1-1.1c0.1-0.7,0.2-1.5,0.3-2.2c0.1-0.4,0.1-0.8,0.2-1.1
	c0.1-0.7,0.3-1.5,0.5-2.3c0.5-1.9,1.1-3.9,1.9-5.7c0.6-1.4,1.3-2.8,2-4.1c0.1-0.1,0.1-0.2,0.2-0.3c3-5.3,7.1-10,11.7-14.3
	c0.5-0.5,1-0.9,1.5-1.4c0.5-0.4,1.1-1,1.6-1.4l0.1-0.1c0.9-0.7,1.7-1.5,2.6-2.2c1.4-1.1,2.7-2.3,4.1-3.4l0.1-0.1
	c1.2-0.9,2.4-1.9,3.6-2.8c1.9-1.5,3.8-2.9,5.6-4.4l1.5-1.2c0.6-0.4,1.1-0.8,1.6-1.3c4.7-3.8,9.2-8.1,13.3-12.6
	c0.8-0.8,1.5-1.7,2.3-2.6c0.4-0.4,0.7-0.8,1.1-1.2c5.1-5.8,9.8-11.6,15.1-17.2c1.3-1.3,2.5-2.6,3.8-3.9c1.1-1.1,2.2-2.1,3.4-3.1
	c1.3-1.3,2.7-2.4,4.1-3.5c2-1.5,4.1-3,6.3-4.4c0.6-0.4,1.1-0.7,1.6-1c55.4-34.5,96.2-23.2,123.5,0c2.1,1.8,4.1,3.6,6,5.4
	c1.2,1.1,2.3,2.3,3.3,3.4c0.1,0.1,0.2,0.3,0.3,0.4c0.8,0.8,1.5,1.6,2.2,2.5l0.6,0.7c0.3,0.4,0.6,0.7,0.9,1.1
	c0.3,0.4,0.8,0.9,1.1,1.4l0.7,0.9c1.5,1.9,3,3.8,4.3,5.7c0.3,0.4,0.6,0.8,0.8,1.1c1.9,2.7,3.7,5.4,5.3,8l0.7,1.1
	c0.2,0.4,0.5,0.8,0.7,1.2l0.7,1.1c0.2,0.4,0.4,0.8,0.7,1.1l0.6,1.1c0.2,0.4,0.4,0.8,0.6,1.1l0.6,1.1c0.2,0.4,0.4,0.8,0.6,1.1
	l0.6,1.1l0.6,1.1c0.7,1.5,1.4,2.9,2.1,4.3c0.3,0.7,0.6,1.4,1,2.1c1.4,3.2,2.6,6.2,3.5,9.1c0,0,0,0,0,0c0.1,0.3,0.2,0.6,0.3,0.8
	s0.2,0.6,0.3,0.8c0.1,0.3,0.1,0.4,0.2,0.6c0.1,0.3,0.2,0.6,0.3,0.9c0.1,0.3,0.2,0.7,0.3,1c0.2,0.6,0.4,1.2,0.6,1.9
	c0.1,0.5,0.3,1.1,0.4,1.6c0,0.1,0.1,0.2,0.1,0.3c0,0.1,0,0.2,0.1,0.3c0.1,0.3,0.2,0.6,0.2,0.9c0.2,0.8,0.4,1.7,0.6,2.5
	c0.1,0.5,0.2,0.9,0.3,1.4l0.1,0.3c0.1,0.4,0.2,0.9,0.2,1.3c0.1,0.6,0.2,1.2,0.3,1.7c0.1,0.4,0.1,0.9,0.2,1.3c0,0.1,0,0.1,0,0.2
	c0,0.3,0.1,0.6,0.1,0.9c0,0.3,0.1,0.5,0.1,0.7c0.1,0.9,0.2,1.8,0.3,2.6l0.1,0.6l0.1,1c0,0.4,0,0.7,0.1,1.1c0,0.3,0,0.6,0,0.9
	c0,0.4,0,0.9,0,1.3C267.8,135.5,267.8,136.2,267.8,136.7z"/>
<g class="st1">
	<path class="st2" d="M267.8,136.7c0,5.3-0.6,10.6-1.9,15.8c-0.4,1.7-0.9,3.4-1.5,5.1c-0.2,0.5-0.3,1-0.5,1.4
		c-0.1,0.4-0.3,0.8-0.4,1.2l-0.1,0.3c-0.2,0.4-0.3,0.8-0.5,1.2l-0.1,0.2c-0.2,0.4-0.3,0.8-0.5,1.2l-0.2,0.5c-0.2,0.3-0.3,0.7-0.5,1
		c-0.2,0.3-0.4,0.7-0.5,1.1c-0.1,0.1-0.1,0.3-0.2,0.4l-0.5,0.9l-0.4,0.7c-0.6,1.1-1.2,2.2-1.9,3.2c-0.3,0.4-0.5,0.9-0.8,1.3
		c-0.1,0.1-0.1,0.2-0.2,0.3c-0.3,0.5-0.6,1-1,1.5c-0.3,0.4-0.5,0.8-0.8,1.2l-0.7,1l-0.2,0.2c-0.2,0.4-0.5,0.7-0.8,1.1
		c-0.3,0.4-0.6,0.9-0.9,1.3c-0.1,0.1-0.1,0.2-0.2,0.3c-0.4,0.5-0.7,1-1.1,1.5c-0.2,0.3-0.4,0.6-0.7,0.9c-0.4,0.5-0.8,1.1-1.2,1.6
		c-0.4,0.5-0.8,1-1.2,1.5l-0.1,0.2c-0.4,0.5-0.8,1-1.2,1.5c-0.1,0.1-0.2,0.3-0.4,0.4c-0.4,0.4-0.8,0.9-1.1,1.3
		c-1.1,1.3-2.2,2.6-3.3,3.8c-2.3,2.6-4.6,5.2-6.9,7.7c-2,2.1-3.9,4.2-5.9,6.3c-9.7,9.9-20.2,19.2-31.6,26.6
		c-1.4,0.9-2.8,1.8-4.3,2.7l-1.6,0.9l-0.3,0.2c-0.6,0.3-1.1,0.6-1.6,0.9c-0.5,0.3-1.1,0.6-1.7,0.9l-0.8,0.4
		c-1.1,0.6-2.2,1.1-3.3,1.7c-0.6,0.3-1.2,0.6-1.8,0.8c-0.6,0.3-1.1,0.5-1.7,0.8l-0.7,0.3c-0.5,0.2-1,0.4-1.6,0.6c-1,0.4-2,0.8-3,1.2
		l-1.2,0.4l-0.7,0.2l-1.1,0.4l-1,0.3h0c-0.6,0.2-1.3,0.4-1.9,0.6c-1,0.3-2,0.6-3,0.8c-0.7,0.2-1.3,0.3-2,0.5
		c-0.7,0.2-1.3,0.3-1.9,0.4l-0.2,0c-0.7,0.1-1.3,0.3-2,0.4l-1,0.2l-1,0.2c-0.3,0.1-0.6,0.1-0.9,0.1l-1.1,0.2
		c-3.9,0.5-7.9,0.7-11.9,0.7H144c-3.6-0.1-7.2-0.3-10.8-0.8l-0.8-0.1l-1.4-0.2l-1.1-0.2c-1.5-0.2-3-0.5-4.4-0.8
		c-0.3-0.1-0.7-0.1-1-0.2c-1-0.2-2-0.4-3-0.7c-0.7-0.2-1.3-0.3-2-0.5l-1-0.3l-1-0.3c-1.3-0.4-2.6-0.7-3.9-1.1
		c-1.5-0.5-3-0.9-4.5-1.5l-1.6-0.6c-1.7-0.6-3.3-1.2-5-1.9l-0.9-0.4l-0.7-0.3l-0.5-0.2c-1.1-0.5-2.2-1.1-3.5-1.7l-0.6-0.3
		c-0.8-0.4-1.6-0.8-2.4-1.3c-1.7-1-3.6-2-5.6-3.2c-22.2-13.1-56.3-37.7-64.3-47c-0.4-0.5-0.8-1-1.2-1.4c-0.3-0.4-0.6-0.8-0.9-1.2
		c-0.3-0.4-0.6-0.7-0.8-1.1c-0.2-0.4-0.5-0.6-0.7-1c-0.2-0.3-0.4-0.6-0.6-0.9l0-0.1c-0.3-0.4-0.5-0.7-0.7-1.1
		c-0.2-0.4-0.5-0.7-0.7-1.1c-0.1-0.2-0.2-0.3-0.3-0.5c-0.2-0.4-0.5-0.8-0.7-1.2c-0.3-0.5-0.5-0.9-0.8-1.4c-0.4-0.8-0.9-1.6-1.2-2.4
		l-0.3-0.6c-0.8-1.7-1.5-3.4-2.1-5.2c-0.2-0.6-0.4-1.2-0.6-1.8c-0.2-0.8-0.5-1.6-0.7-2.4c0-0.2-0.1-0.3-0.1-0.5
		c-0.1-0.4-0.2-0.8-0.3-1.3c-0.1-0.6-0.2-1.2-0.3-1.8c0-0.1-0.1-0.3-0.1-0.4c-0.1-0.3-0.1-0.6-0.1-0.9c0-0.3-0.1-0.7-0.1-1.1
		c0-0.1,0-0.3,0-0.4c0-0.3-0.1-0.6-0.1-0.9c0,0,0-0.1,0-0.1c0-0.4,0-0.8-0.1-1.1c0,0,0-0.1,0-0.1c0-0.4,0-0.8,0-1.2
		c0-1,0-1.9,0.1-2.9c0-0.4,0.1-0.8,0.1-1.1c0.1-0.7,0.2-1.5,0.3-2.2c0.1-0.4,0.1-0.8,0.2-1.1c0.1-0.7,0.3-1.5,0.5-2.3
		c0.5-1.9,1.1-3.9,1.9-5.7c0.6-1.4,1.3-2.8,2-4.1c0.1-0.1,0.1-0.2,0.2-0.3c3-5.3,7.1-10,11.7-14.3l0.8-0.7l0.7-0.6
		c0.6-0.5,1.1-1,1.6-1.4l0.1-0.1c0.9-0.7,1.7-1.5,2.6-2.2c1.4-1.1,2.7-2.3,4.1-3.4l0.1-0.1c1.2-0.9,2.4-1.9,3.6-2.8l1.8-1.4
		c1.3-1,2.6-2,3.8-3l1.5-1.2c0.6-0.4,1.1-0.8,1.6-1.3c4.7-3.8,9.2-8.1,13.3-12.6c0.8-0.8,1.5-1.7,2.3-2.6c0.4-0.4,0.7-0.8,1.1-1.2
		c5.1-5.8,9.8-11.6,15.1-17.2c1.3-1.3,2.5-2.6,3.8-3.9c1.1-1.1,2.2-2.1,3.4-3.1c1.3-1.2,2.7-2.4,4.1-3.5c2-1.5,4.1-3,6.3-4.4
		c0.6-0.4,1.1-0.7,1.6-1c55.4-34.5,96.2-23.2,123.5,0c2.1,1.8,4.1,3.6,6,5.4c1.2,1.1,2.3,2.3,3.3,3.4c0.1,0.1,0.2,0.3,0.3,0.4
		c0.8,0.8,1.5,1.6,2.2,2.5l0.6,0.7c0.3,0.4,0.6,0.7,0.9,1.1c0.3,0.4,0.8,0.9,1.1,1.4l0.7,0.9c1.5,1.9,3,3.8,4.3,5.7
		c0.3,0.4,0.6,0.8,0.8,1.1c1.9,2.7,3.7,5.4,5.3,8l0.7,1.1c0.2,0.4,0.5,0.8,0.7,1.2l0.7,1.1c0.2,0.4,0.4,0.8,0.7,1.1l0.6,1.1
		c0.2,0.4,0.4,0.8,0.6,1.1l0.6,1.1c0.2,0.4,0.4,0.8,0.6,1.1l0.6,1.1l0.6,1.1c0.7,1.5,1.4,2.9,2.1,4.3c0.3,0.7,0.6,1.4,1,2.1
		c1.4,3.2,2.6,6.2,3.5,9.1c0,0,0,0,0,0c0.1,0.3,0.2,0.6,0.3,0.8s0.2,0.6,0.3,0.8c0.1,0.3,0.1,0.4,0.2,0.6c0.1,0.3,0.2,0.6,0.3,0.9
		c0.1,0.3,0.2,0.7,0.3,1c0.2,0.6,0.4,1.2,0.6,1.9c0.1,0.5,0.3,1.1,0.4,1.6c0,0.1,0.1,0.2,0.1,0.3c0,0.1,0,0.2,0.1,0.3
		c0.1,0.3,0.2,0.6,0.2,0.9c0.2,0.8,0.4,1.7,0.6,2.5c0.1,0.5,0.2,0.9,0.3,1.4l0.1,0.3c0.1,0.4,0.2,0.9,0.2,1.3
		c0.1,0.6,0.2,1.2,0.3,1.7c0.1,0.4,0.1,0.9,0.2,1.3c0,0.1,0,0.1,0,0.2c0,0.3,0.1,0.6,0.1,0.9c0,0.3,0.1,0.5,0.1,0.7
		c0.1,0.9,0.2,1.8,0.3,2.6l0.1,0.6l0.1,1c0,0.4,0,0.7,0.1,1.1c0,0.3,0,0.6,0,0.9c0,0.4,0,0.9,0,1.3
		C267.8,135.5,267.8,136.2,267.8,136.7z"/>
</g>
<path class="st3" d="M17.9,145.8C17.8,145.7,17.8,145.7,17.9,145.8L17.9,145.8z"/>
<path class="st4" d="M69.9,140.9c-0.3,1.9-1.1,3.6-2.4,5c-1.2,1.4-2.8,2.5-4.6,3l-1.4,0.5c-5,7-13.7,10-21.1,5.7l-2.2-1.3l-6.1-7.2
	h-0.1c-1.9,0.4-4.1,0.1-5.5-1.3c-0.1,0.3-0.2,0.6-0.4,0.8c-0.2,0.2-0.4,0.4-0.7,0.6s-0.6,0.2-0.9,0.2c-0.3,0-0.6-0.1-0.9-0.3
	c-0.3-0.2-0.5-0.4-0.6-0.6c-0.2-0.3-0.3-0.5-0.3-0.9c0-0.3,0-0.6,0.1-0.9c0.1-0.3,0.3-0.5,0.5-0.7c-1.2,1.1-3.1,0.6-4.3-0.6
	c-0.1-3.2,0.3-6.5,1.1-9.6c0.5-1.9,1.1-3.8,1.9-5.7c0.6-1.4,1.3-2.8,2-4.1c0.1-0.1,0.1-0.2,0.2-0.3c1.1-1.9,2.3-3.8,3.7-5.6l0.7-0.6
	c0.6-0.5,1.1-1,1.6-1.4l0.1-0.1c0.9-0.7,1.7-1.5,2.6-2.2c1.4-1.1,2.7-2.3,4.1-3.4l0.1-0.1c1.2-0.9,2.4-1.9,3.6-2.8l1.8-1.4
	c0.4,0,0.7,0.1,1.1,0.3c1.5,0.5,1.7,1.9,2.8,2.8c1.4,1.3,2.7-0.9,4.8-0.8c6.5,0.2,4,6.8,7.1,6c13.7-3.6,11.4,13.9,5.4,17.7
	C67.5,134.4,70.6,136.4,69.9,140.9z"/>
<path class="st5" d="M40.5,157.5c12.7,0,23-10.2,23-22.8c0-12.6-10.3-22.8-23-22.8c-12.7,0-23,10.2-23,22.8
	C17.5,147.3,27.8,157.5,40.5,157.5z"/>
<path class="st6" d="M40.5,154.6c11.6,0,21-9.3,21-20.8c0-11.5-9.4-20.7-21-20.7c-11.6,0-21,9.3-21,20.7
	C19.5,145.3,28.9,154.6,40.5,154.6z"/>
<path class="st0" d="M17.9,142c-1.3,0.8-1.7,3.6-0.7,4.8s3,0.3,3.4-1.6c0,0.1,0.1,0.2,0.2,0.3c0.1,0.1,0.2,0.1,0.3,0.1
	c0.1,0,0.2,0,0.3,0s0.2-0.1,0.3-0.2c0.1-0.2,0.2-0.4,0.2-0.6c0-0.2,0-0.4-0.1-0.6c-0.1-0.1-0.1-0.1,0,0c0.7,0.6,1.8,0,2-1.2
	c-0.5,3.1,2.3,5.7,4.3,4.2c-0.6,1.3,0.2,3,1.2,3.3s2.2-0.3,3.2-1c1-0.7,2.1-1.5,3.2-1.5c1,0,1.9,0.5,2.8,0.8c2.9,1,6.3-0.3,8.6-3.4
	c1.5,2.5,5.1,1.6,6.1-1.6c0.2,1.5,1.2,2.6,2.3,2.6c1.1,0,2.3-1.1,2.6-2.5c0,1.4,1.3,2.1,2.2,1.2c0.6-0.6,1.1-1.4,1.3-2.3
	c0.2-0.9,0.2-1.8,0-2.6c1.5-0.1,3-1.8,3.2-3.9c0.2-2-0.8-4.1-2.3-4.5c2.5-1,4.4-4.4,4.6-7.9c0.1-3.5-1.7-6.7-4.2-7.5
	c-0.5-0.2-1-0.2-1.5-0.1c-0.5,0.1-1,0.4-1.3,0.7c-0.3-2-1.2-3.8-2.5-4.6c-2.1-1.4-5.1-0.4-6.6,2.2c0.4-0.7,0.6-1.5,0.6-2.3
	c0-0.8-0.1-1.6-0.5-2.3c-0.7-1.3-2.1-1.8-3.3-1.2c-0.3-2.1-1.9-3.6-3.5-3.2c-1.6,0.4-2.9,2.7-2.8,4.8c-0.2-1.7-2.2-2.2-2.9-0.7
	c0,0.1,0.1,0.1,0,0c-1-2.1-3.1-3.2-5-2.6c-2.1,0.7-3.8,3.2-4,6.1c-0.7-0.6-1.6-1-2.5-0.9s-1.8,0.4-2.5,1.1c-1.5,1.4-2.4,4-2.1,6.3
	c-1.6-1.6-4.3-0.7-5.4,1.7c-1.1,2.4-0.3,5.9,1.5,6.9c-1.3,0.2-2.4,1.9-2.4,3.6c0,1.7,1.1,3.2,2.4,3.1c-1.3,0.1-2.5,1.6-2.7,3.4
	C15.8,139.9,16.7,141.6,17.9,142z"/>
<g class="st7">
	<path class="st2" d="M39.1,134.1c-0.3-0.3-0.7-0.5-1-0.6c-0.4-0.1-0.8-0.1-1.2,0c-0.4,0.2-0.8,0.4-1.1,0.8
		c-0.3,0.4-0.5,0.8-0.6,1.3c-0.2,1,0.3,2.1,1.1,2.3c0.9,0.2,1.9-0.8,2.9-0.7c0.3,0.1,0.7,0.2,1,0.3c1.4,0.4,2.8-0.9,3.9-2
		c0.4-0.4,0.8-0.9,1.1-1.4c0.2-0.3,0.2-0.6,0.3-0.9c0-0.3,0-0.6-0.1-0.9c-0.3-0.8-1.2-0.8-1.9-0.7c-1.5,0.3-2.9,1.1-3.9,2.3
		c0-0.3,0.1-0.6,0.1-0.8L39.1,134.1z"/>
	<path class="st2" d="M59.2,131.3c-0.3-0.3-0.7-0.6-1.2-0.7c-0.2-0.1-0.5,0-0.7,0.1c-0.2,0.1-0.4,0.3-0.5,0.5
		c-0.2,0.3-0.2,0.7-0.2,1.1c0.1,0.4,0.2,0.7,0.5,1c0.5,0.4,1.1,0.6,1.7,0.6c0.6,0.1,1.4,0.1,1.8-0.7c0.1-0.3,0.1-0.6,0.1-0.8
		c0-0.3-0.2-0.5-0.4-0.8c-0.3-0.3-0.8-0.6-1.2-0.7L59.2,131.3z"/>
	<path class="st2" d="M27.7,120c-0.7,0.5-1.3,1.1-1.7,1.8c-0.5,0.7-0.8,1.5-0.9,2.3c-0.1,0.5-0.1,1.2,0.3,1.4
		c0.1,0.1,0.3,0.1,0.4,0.1c0.2,0,0.3,0,0.4-0.1l3.7-1.3c-0.6,0.3-1.2,0.7-1.7,1.2c-0.3,0.3-0.5,0.6-0.6,1c-0.1,0.4-0.1,0.8-0.1,1.2
		c0.1,0.4,0.3,0.7,0.6,1c0.3,0.3,0.7,0.4,1.1,0.4c0.8-0.1,1.5-0.6,2-1.2c0.7-0.6,1.2-1.5,1.3-2.5c0-1-0.9-1.9-1.6-1.2
		c1.5-0.6,2.8-1.5,4-2.6c0.5-0.4,0.9-0.9,1.2-1.4c0.2-0.3,0.2-0.6,0.3-0.9c0-0.3,0-0.7-0.1-1c-1.2-2.8-2.9,1.5-3.6,2
		C31.2,120.9,29.6,118.9,27.7,120z"/>
	<path class="st2" d="M21.8,132.7c-0.1,0.3-0.1,0.6,0,0.8c0.1,0.3,0.2,0.5,0.3,0.8c0.1,0.1,0.2,0.1,0.3,0.2c0.1,0,0.2,0,0.4,0
		c0.1,0,0.2-0.1,0.3-0.2c0.1-0.1,0.1-0.2,0.2-0.3c-0.9,0.3-1.7,0.9-2.2,1.7c-0.6,0.9-0.4,2.4,0.4,2.7c0.5,0.2,1.1-0.2,1.5-0.5
		c1.4-1,2.7-2.2,3.9-3.4c-0.1,0.2-0.1,0.5-0.1,0.8c0,0.3,0.1,0.5,0.2,0.7c0.1,0.2,0.3,0.4,0.5,0.5c0.2,0.1,0.5,0.2,0.7,0.3
		c0.9,0,1.8-0.6,2.6-1.3c1-0.8,2.1-2,1.9-3.4c0-0.3-0.1-0.5-0.3-0.7c-0.1-0.2-0.3-0.4-0.6-0.5c-0.2-0.1-0.5-0.2-0.7-0.2
		c-0.3,0-0.5,0-0.7,0.2c-0.9,0.4-1.7,1.4-2.3,2.4c0.6-1-0.2-2.4-1.1-2.5c-0.9-0.1-1.8,0.6-2.3,1.5c1-0.8,1.3-2.7-0.1-2.8
		C23.6,129.4,22,131.8,21.8,132.7z"/>
	<path class="st2" d="M49.9,126.8c-0.8-0.3-1.7,0.4-2,1.4c-0.2,1,0.4,2.2,1.2,2.3c-0.3,0.1-0.6,0.2-0.9,0.4
		c-0.3,0.2-0.5,0.4-0.7,0.7c-0.2,0.3-0.4,0.8-0.4,1.2c0,0.3,0.2,0.5,0.4,0.7c0.2,0.2,0.5,0.3,0.7,0.3c0.5-0.1,1-0.3,1.4-0.6
		c-0.5,0-1,0.3-1.4,0.6c-0.2,0.2-0.3,0.5-0.4,0.8c0,0.3,0,0.6,0.2,0.9c0.3,0.4,0.8,0.3,1.2,0.1c1-0.4,1.8-1.1,2.4-1.9
		c0.2,0.3,0.5,0.6,0.8,0.8c0.4,0.2,0.8,0.2,1.1,0.2c0.4-0.2,0.8-0.5,1-0.9c0.2-0.4,0.3-0.9,0.2-1.3c-0.1-0.3-0.2-0.5-0.4-0.7
		c-0.2-0.2-0.5-0.3-0.8-0.3c-0.6,0-1.1,0.1-1.6,0.4c0.6-0.5,1.1-1.1,1.3-1.9c0.2-0.8-0.2-1.8-0.8-1.7c-0.7,0.1-1.1,1.4-1.7,1.9
		C50.1,129.3,51.4,127.5,49.9,126.8z"/>
	<path class="st2" d="M36.9,123.8c-0.8,0.8-1.2,2.2-1.1,3.5c0,1.4,0.5,2.9,1.5,3.4c1.3,0.7,3-0.9,3.3-2.7c0.1-0.8,0-1.7-0.3-2.5
		c-0.3-0.8-0.9-1.4-1.6-1.9c-0.3-0.1-0.6-0.2-0.9-0.1C37.4,123.4,37.1,123.5,36.9,123.8z"/>
	<path class="st2" d="M46.2,121.7l0.3,0.4c-0.1-0.2-0.3-0.4-0.5-0.5c-0.2-0.1-0.4-0.2-0.7-0.2c-0.2,0-0.5,0-0.7,0.1
		c-0.2,0.1-0.4,0.3-0.5,0.5c-0.3,0.4-0.5,1-0.5,1.5c0,0.6,0.2,1.1,0.5,1.6c0.2,0.2,0.4,0.3,0.6,0.4c0.2,0.1,0.5,0.1,0.7,0.1
		c0.2,0,0.5-0.1,0.7-0.3c0.2-0.1,0.4-0.3,0.5-0.5c0.5,0.3,1.1,0.3,1.6,0.1c0.5-0.2,1-0.5,1.3-1c0.7-1.1,0.6-2.9-0.3-3.5
		c-0.9-0.6-2.3,0.5-2.2,1.8l-0.4-0.6L46.2,121.7z"/>
	<path class="st2" d="M56.4,123.2c-0.8,0.8-1.3,1.8-1.6,2.9c-0.3,1.2,0.1,2.6,1,2.8c0.9,0.2,1.7-0.8,2.3-1.8c0.5-0.9,0.8-2,0.6-3
		c-0.2-1-1.4-1.5-1.9-0.7L56.4,123.2z"/>
	<path class="st2" d="M41.8,117.2c-0.1-0.2-0.2-0.4-0.3-0.5c-0.2-0.2-0.3-0.3-0.5-0.3c-0.2-0.1-0.4-0.1-0.6,0s-0.4,0.1-0.6,0.3
		c-0.4,0.4-0.6,0.8-0.7,1.3c-0.1,0.5-0.1,1,0,1.5c0.1,0.4,0.3,0.8,0.7,1.1c0.3,0.3,0.7,0.5,1.2,0.5c0.3,0,0.6-0.1,0.8-0.2
		c0.3-0.1,0.5-0.3,0.7-0.5c0.2-0.2,0.3-0.5,0.4-0.7c0.1-0.3,0.1-0.6,0.1-0.8c0.2,0.3,0.5,0.6,0.8,0.7c0.3,0.1,0.7,0.2,1.1,0.1
		c0.7-0.2,1.4-0.6,2-1.1c0.9-0.7,1.8-1.7,1.7-2.9c0-0.4-0.2-0.8-0.5-1.2c-0.3-0.3-0.7-0.5-1.1-0.6c-0.4,0-0.8,0.1-1.2,0.3
		c-0.4,0.2-0.7,0.5-0.9,0.8c-0.5,0.5-0.9,1.2-1.4,1.7c-0.5,0.5-1.2,0.8-1.7,0.4L41.8,117.2z"/>
</g>
<path class="st8" d="M209.3,151.4H81v54h128.3V151.4z"/>
<path class="st5" d="M95.7,154.9H83.7v6.7h12.1V154.9z"/>
<path class="st5" d="M206.3,187.5h-19v6.7h19V187.5z"/>
<path class="st5" d="M206.3,163.3h-11.7v6.7h11.7V163.3z"/>
<path class="st5" d="M95.7,179.2H83.7v6.7h12.1V179.2z"/>
<path class="st5" d="M93.4,171.2h-9.8v6.7h9.8V171.2z"/>
<path class="st5" d="M90.4,163.1h-6.7v6.7h6.7V163.1z"/>
<path class="st5" d="M98.9,163.1h-6.7v6.7h6.7V163.1z"/>
<path class="st5" d="M107.4,163.1h-6.7v6.7h6.7V163.1z"/>
<path class="st5" d="M115.9,163.1h-6.7v6.7h6.7V163.1z"/>
<path class="st5" d="M124.5,163.1h-6.7v6.7h6.7V163.1z"/>
<path class="st5" d="M133,163.1h-6.7v6.7h6.7V163.1z"/>
<path class="st5" d="M141.5,163.1h-6.7v6.7h6.7V163.1z"/>
<path class="st5" d="M150,163.1h-6.7v6.7h6.7V163.1z"/>
<path class="st5" d="M158.6,163.1h-6.7v6.7h6.7V163.1z"/>
<path class="st5" d="M167.1,163.1h-6.7v6.7h6.7V163.1z"/>
<path class="st5" d="M175.6,163.1h-6.7v6.7h6.7V163.1z"/>
<path class="st5" d="M184.1,163.1h-6.7v6.7h6.7V163.1z"/>
<path class="st5" d="M192.7,163.1H186v6.7h6.7V163.1z"/>
<path class="st5" d="M90.4,195.7h-6.7v6.7h6.7V195.7z"/>
<path class="st5" d="M98.9,195.7h-6.7v6.7h6.7V195.7z"/>
<path class="st5" d="M107.4,195.7h-6.7v6.7h6.7V195.7z"/>
<path class="st5" d="M117.4,195.7h-8.2v6.7h8.2V195.7z"/>
<path class="st5" d="M160,195.7h-40.8v6.7H160V195.7z"/>
<path class="st5" d="M180.4,195.7h-6.7v6.7h6.7V195.7z"/>
<path class="st5" d="M188.9,195.7h-6.7v6.7h6.7V195.7z"/>
<path class="st5" d="M197.5,195.7h-6.7v6.7h6.7V195.7z"/>
<path class="st5" d="M172.1,195.7h-10.4v6.7h10.4V195.7z"/>
<path class="st5" d="M206.3,195.7h-6.7v6.7h6.7V195.7z"/>
<path class="st5" d="M102,171.2h-6.7v6.7h6.7V171.2z"/>
<path class="st5" d="M110.5,171.2h-6.7v6.7h6.7V171.2z"/>
<path class="st5" d="M119.1,171.2h-6.7v6.7h6.7V171.2z"/>
<path class="st5" d="M127.6,171.2h-6.7v6.7h6.7V171.2z"/>
<path class="st5" d="M136.1,171.2h-6.7v6.7h6.7V171.2z"/>
<path class="st5" d="M144.6,171.2H138v6.7h6.7V171.2z"/>
<path class="st5" d="M153.2,171.2h-6.7v6.7h6.7V171.2z"/>
<path class="st5" d="M161.7,171.2H155v6.7h6.7V171.2z"/>
<path class="st5" d="M170.2,171.2h-6.7v6.7h6.7V171.2z"/>
<path class="st5" d="M178.7,171.2h-6.7v6.7h6.7V171.2z"/>
<path class="st5" d="M187.3,171.2h-6.7v6.7h6.7V171.2z"/>
<path class="st5" d="M195.8,171.2h-6.7v6.7h6.7V171.2z"/>
<path class="st5" d="M206.3,171.2V186h-6.7v-8.1h-2v-6.7H206.3z"/>
<path class="st5" d="M104,179.3h-6.7v6.7h6.7V179.3z"/>
<path class="st5" d="M112.5,179.3h-6.7v6.7h6.7V179.3z"/>
<path class="st5" d="M121,179.3h-6.7v6.7h6.7V179.3z"/>
<path class="st5" d="M129.6,179.3h-6.7v6.7h6.7V179.3z"/>
<path class="st5" d="M138.1,179.3h-6.7v6.7h6.7V179.3z"/>
<path class="st5" d="M146.6,179.3h-6.7v6.7h6.7V179.3z"/>
<path class="st5" d="M155.1,179.3h-6.7v6.7h6.7V179.3z"/>
<path class="st5" d="M163.7,179.3H157v6.7h6.7V179.3z"/>
<path class="st5" d="M172.2,179.3h-6.7v6.7h6.7V179.3z"/>
<path class="st5" d="M180.7,179.3H174v6.7h6.7V179.3z"/>
<path class="st5" d="M189.2,179.3h-6.7v6.7h6.7V179.3z"/>
<path class="st5" d="M197.8,179.3h-6.7v6.7h6.7V179.3z"/>
<path class="st5" d="M100.4,187.5h-6.7v6.7h6.7V187.5z"/>
<path class="st5" d="M108.9,187.5h-6.7v6.7h6.7V187.5z"/>
<path class="st5" d="M117.4,187.5h-6.7v6.7h6.7V187.5z"/>
<path class="st5" d="M125.9,187.5h-6.7v6.7h6.7V187.5z"/>
<path class="st5" d="M134.5,187.5h-6.7v6.7h6.7V187.5z"/>
<path class="st5" d="M143,187.5h-6.7v6.7h6.7V187.5z"/>
<path class="st5" d="M151.5,187.5h-6.7v6.7h6.7V187.5z"/>
<path class="st5" d="M160,187.5h-6.7v6.7h6.7V187.5z"/>
<path class="st5" d="M168.6,187.5h-6.7v6.7h6.7V187.5z"/>
<path class="st5" d="M177.1,187.5h-6.7v6.7h6.7V187.5z"/>
<path class="st5" d="M185.6,187.5h-6.7v6.7h6.7V187.5z"/>
<path class="st5" d="M104,155.3h-6.7v6.7h6.7V155.3z"/>
<path class="st5" d="M112.5,155.3h-6.7v6.7h6.7V155.3z"/>
<path class="st5" d="M121,155.3h-6.7v6.7h6.7V155.3z"/>
<path class="st5" d="M129.6,155.3h-6.7v6.7h6.7V155.3z"/>
<path class="st5" d="M138.1,155.3h-6.7v6.7h6.7V155.3z"/>
<path class="st5" d="M146.6,155.3h-6.7v6.7h6.7V155.3z"/>
<path class="st5" d="M155.1,155.3h-6.7v6.7h6.7V155.3z"/>
<path class="st5" d="M163.7,155.3H157v6.7h6.7V155.3z"/>
<path class="st5" d="M172.2,155.3h-6.7v6.7h6.7V155.3z"/>
<path class="st5" d="M180.7,155.3H174v6.7h6.7V155.3z"/>
<path class="st5" d="M189.2,155.3h-6.7v6.7h6.7V155.3z"/>
<path class="st5" d="M197.8,155.3h-6.7v6.7h6.7V155.3z"/>
<path class="st5" d="M206.3,155.3h-6.7v6.7h6.7V155.3z"/>
<path class="st5" d="M91.8,187.5h-8.1v6.7h8.1V187.5z"/>
<path class="st9" d="M81,152l2.7-0.9h123.8l1.8,0.9L81,152z"/>
<path class="st4" d="M172.5,244.6l-2.6-15.7c-0.6-2.3-1.8-4.5-3.5-6.1c-5.2-5-12-10.1-12.3-16.7c-0.4-10-2-9.7-1.8-12.2
	c0.7-1.2,1.3-2.4,1.8-3.7c0.3-1,0.6-2,0.8-3c0.1-0.5,0.4-0.9,0.8-1.2c0.4-0.3,0.9-0.4,1.4-0.4c0.7,0.1,1.4,0.4,1.9,0.9
	c0.9,1,1.4,2.3,1.4,3.6c0,1.3-0.2,2.6-0.6,3.9c0.9,2.2,1.4,4.5,1.7,6.9c0.6-1.8,1-3.7,1.6-5.5c0.1-0.1,0.1-0.2,0.2-0.3
	c-0.8-1.8-0.1-1.7-1.8-5.7c-2.8-6.7-5.9-13.1-8.1-21.5c-0.2-0.8-0.2-1.6,0.1-2.4c0.8-2.4,3.3-1.8,4.4-0.5c0.3,0.4,0.5,0.8,0.7,1.2
	c1.5,3.6,3.2,7,5.3,10.3l6.1,9.2c0,0,2.1-1.7,2.4-2.5c0.3-0.8,0.5-7,0.5-7s-0.5,1.2-1.5,1.1c-0.8-0.1-2.3,0.4-3.4-0.9
	c-0.4-0.5-0.7-1.1-0.7-1.8c0-0.7,0.2-1.3,0.6-1.8l2.7-3.7c0.6-0.5,1.3-0.8,2.1-0.9c0.8-0.1,1.5,0,2.2,0.3c1.8,0.9,3.4,2,4.8,3.4
	c1.4,0,2.9,0.2,4.2,0.8c1.9,0.9,4,3.6,4,3.6s2.3,0.1,3.3,0.9c0.3,0.2,3.7,5.6,2.5,9.7c-0.7,2.5-1.2,6.1-1.5,7.1l-1.7,24.5l3.4,16.1
	l-7.3,4.1c-2.7,1.5-5.5,2.7-8.4,3.7L172.5,244.6z"/>
<path class="st2" d="M193.3,216l0.1-24.6c0.3-1,0.5-4.6,1.1-7.2c1-4.3-2.8-9.4-3.1-9.6c-1.1-0.7-3.3-0.7-3.3-0.7s-2.2-2.5-4.2-3.3
	c-1.4-0.5-2.8-0.7-4.3-0.6c-1.5-1.3-3.2-2.3-5.1-3.1c-0.7-0.3-1.5-0.3-2.2-0.2c-0.8,0.1-1.4,0.5-2,1l-2.5,3.9
	c-0.4,0.6-0.5,1.2-0.5,1.9c0.1,0.7,0.3,1.3,0.8,1.8c1.2,1.2,2.7,0.6,3.5,0.6c1.1,0,1.5-1.2,1.5-1.2s0.3,6.3,0,7.1
	c-0.3,0.8-2.3,2.7-2.3,2.7l-6.7-8.8c-2.3-3.1-4.3-6.4-6-9.9c-0.2-0.4-0.4-0.8-0.8-1.2c-1.2-1.3-3.7-1.7-4.3,0.7
	c-0.2,0.8-0.1,1.6,0.1,2.4c2.8,8.2,6.3,14.4,9.6,20.9c1.9,3.8,1.2,3.8,2.2,5.5c-0.1,0.1-0.1,0.2-0.2,0.3c-0.5,1.9-0.8,3.7-1.3,5.6
	c-0.4-2.3-1.1-4.6-2.1-6.8c0.3-1.3,0.4-2.6,0.3-4c-0.1-1.3-0.7-2.6-1.7-3.5c-0.6-0.4-1.2-0.7-1.9-0.8c-0.5,0-1,0.1-1.4,0.4
	c-0.4,0.3-0.7,0.8-0.7,1.3c-0.1,1-0.3,2-0.6,3c-0.4,1.3-0.9,2.6-1.5,3.8c0,2.5,1.5,2.1,2.7,12c0.9,7.8,10.9,12.9,16.3,18.5l5.8,18.3
	c6.8-2.7,13.3-6.2,19.4-10.2L193.3,216z"/>
<defs>
	<filter id="Adobe_OpacityMaskFilter" filterUnits="userSpaceOnUse" x="154.7" y="162.5" width="39.8" height="54.5">
		<feColorMatrix  type="matrix" values="1 0 0 0 0  0 1 0 0 0  0 0 1 0 0  0 0 0 1 0"/>
	</filter>
</defs>
<mask maskUnits="userSpaceOnUse" x="154.7" y="162.5" width="39.8" height="54.5" id="mask0_1216_35543_1_">
	<path class="st10" d="M193.3,216l0.1-24.6c0.3-1,0.5-4.6,1.1-7.2c1-4.3-2.8-9.4-3.1-9.6c-1.1-0.7-3.3-0.7-3.3-0.7s-2.2-2.5-4.2-3.3
		c-1.4-0.5-2.8-0.7-4.3-0.6c-1.5-1.3-3.2-2.3-5.1-3.1c-0.7-0.3-1.5-0.3-2.2-0.2c-0.8,0.1-1.4,0.5-2,1l-2.5,3.9
		c-0.4,0.6-0.5,1.2-0.5,1.9c0.1,0.7,0.3,1.3,0.8,1.8c1.2,1.2,2.7,0.6,3.5,0.6c1.1,0,1.5-1.2,1.5-1.2s0.3,6.3,0,7.1
		c-0.3,0.8-2.3,2.7-2.3,2.7l-6.7-8.8c-2.3-3.1-4.3-6.4-6-9.9c-0.2-0.4-0.4-0.8-0.8-1.2c-1.2-1.3-3.7-1.7-4.3,0.7
		c-0.2,0.8-0.1,1.6,0.1,2.4c2.8,8.2,6.3,14.4,9.6,20.9c1.9,3.8,1.2,3.8,2.2,5.5c-0.1,0.1-0.1,0.2-0.2,0.3c-0.5,1.9-0.8,3.7-1.3,5.6
		c-0.4-2.3-1.1-4.6-2.1-6.8c0.3-1.3,0.4-2.6,0.3-4c-0.1-1.3-0.7-2.6-1.7-3.5c-0.6-0.4-1.2-0.7-1.9-0.8c-0.5,0-1,0.1-1.4,0.4
		c-0.4,0.3-0.7,0.8-0.7,1.3c-0.1,1-0.3,2-0.6,3c-0.4,1.3-0.9,2.6-1.5,3.8c0,2.5,1.5,2.1,2.7,12c0.9,7.8,10.9,12.9,16.3,18.5
		l5.8,18.3c6.8-2.7,13.3-6.2,19.4-10.2L193.3,216z"/>
</mask>
<g class="st11">
	<path class="st12" d="M190.5,182.6c0.2-0.7,0.7-1.4,1.3-1.9c0.3-0.2,0.7-0.4,1.1-0.4c0.4,0,0.8,0.2,1.1,0.4
		c-0.4-1.3-0.9-2.5-1.3-3.8c-0.3-1-0.8-1.9-1.5-2.6c-0.8-0.6-2.1-0.8-2.8,0c0.5,2.9,0.5,5.9,0.2,8.8c-0.2,1.6-0.5,3.4,0.6,4.6
		c0.3,0.2,0.8-0.2,0.6-0.5c-0.1-0.2-0.4-0.2-0.6-0.2C189.4,185.5,189.9,184,190.5,182.6z"/>
	<path class="st12" d="M190.5,182.6c0.2-0.7,0.7-1.4,1.3-1.9c0.3-0.2,0.7-0.4,1.1-0.4c0.4,0,0.8,0.2,1.1,0.4
		c-0.4-1.3-0.9-2.5-1.3-3.8c-0.3-1-0.8-1.9-1.5-2.6c-0.8-0.6-2.1-0.8-2.8,0c0.5,2.9,0.5,5.9,0.2,8.8c-0.2,1.6-0.5,3.4,0.6,4.6
		c0.3,0.2,0.8-0.2,0.6-0.5c-0.1-0.2-0.4-0.2-0.6-0.2C189.4,185.5,189.9,184,190.5,182.6z"/>
	<path class="st13" d="M190.5,182.6c0.2-0.7,0.7-1.4,1.3-1.9c0.3-0.2,0.7-0.4,1.1-0.4c0.4,0,0.8,0.2,1.1,0.4
		c-0.4-1.3-0.9-2.5-1.3-3.8c-0.3-1-0.8-1.9-1.5-2.6c-0.8-0.6-2.1-0.8-2.8,0c0.5,2.9,0.5,5.9,0.2,8.8c-0.2,1.6-0.5,3.4,0.6,4.6
		c0.3,0.2,0.8-0.2,0.6-0.5c-0.1-0.2-0.4-0.2-0.6-0.2C189.4,185.5,189.9,184,190.5,182.6z"/>
	<path class="st12" d="M181.6,180c0,1.1,0.1,2.1,0.3,3.2c0.1,0.5,0.3,1,0.6,1.5c0.3,0.4,0.7,0.8,1.2,1.1c-0.6-2.1-0.3-4.3,0-6.4
		l0.6-3.9c0-0.5,0.2-0.9,0.4-1.3c0.1-0.2,0.3-0.3,0.5-0.4c0.2-0.1,0.4-0.1,0.7,0c-0.6,0.3-1.3-0.1-1.6-0.7c-0.3-0.6-0.5-1.2-0.9-1.7
		c-0.7-1-2.3-1.2-3.4-0.9C180.3,173.6,181.5,176.7,181.6,180z"/>
	<path class="st12" d="M181.6,180c0,1.1,0.1,2.1,0.3,3.2c0.1,0.5,0.3,1,0.6,1.5c0.3,0.4,0.7,0.8,1.2,1.1c-0.6-2.1-0.3-4.3,0-6.4
		l0.6-3.9c0-0.5,0.2-0.9,0.4-1.3c0.1-0.2,0.3-0.3,0.5-0.4c0.2-0.1,0.4-0.1,0.7,0c-0.6,0.3-1.3-0.1-1.6-0.7c-0.3-0.6-0.5-1.2-0.9-1.7
		c-0.7-1-2.3-1.2-3.4-0.9C180.3,173.6,181.5,176.7,181.6,180z"/>
	<g class="st14">
		<path class="st2" d="M181.6,180c0,1.1,0.1,2.1,0.3,3.2c0.1,0.5,0.3,1,0.6,1.5c0.3,0.4,0.7,0.8,1.2,1.1c-0.6-2.1-0.3-4.3,0-6.4
			l0.6-3.9c0-0.5,0.2-0.9,0.4-1.3c0.1-0.2,0.3-0.3,0.5-0.4c0.2-0.1,0.4-0.1,0.7,0c-0.6,0.3-1.3-0.1-1.6-0.7
			c-0.3-0.6-0.5-1.2-0.9-1.7c-0.7-1-2.3-1.2-3.4-0.9C180.3,173.6,181.5,176.7,181.6,180z"/>
	</g>
	<path class="st12" d="M172.5,171.4c-0.3-0.3-0.5-0.7-0.6-1.2c0-0.2-0.1-0.4-0.2-0.6s-0.3-0.4-0.4-0.5c-1.7,1.1-0.8,4.3-2.5,5.3
		c-0.3,0.2-0.8,0.3-0.9,0.7c-0.1,0.2-0.1,0.3-0.1,0.5c0,0.2,0.1,0.3,0.2,0.5c0.3,0.2,0.6,0.4,0.9,0.4c0.7,0.1,1.4,0,2-0.3
		c0.6-0.3,1.2-0.7,1.6-1.3c0.7-0.9,1.1-2.4,0.8-3.5c-0.1,0.1-0.3,0.1-0.4,0.1S172.6,171.5,172.5,171.4z"/>
	<path class="st12" d="M154.8,192.2c0,0.1-0.1,0.3,0,0.3c0.1,0.1,0.3-0.1,0.5-0.2c0.4-0.5,0.9-0.9,1.5-1.1c0.6-0.2,1.2-0.2,1.8,0
		c0.4,0,0.6-0.7,0.3-1c-0.2-0.1-0.4-0.3-0.6-0.3c-0.2-0.1-0.4-0.1-0.7-0.1c-0.4,0.1-0.9,0-1.3-0.2c-0.2-0.1-0.4-0.4-0.5-0.6
		c-0.1-0.3-0.1-0.5-0.1-0.8C155.5,189.5,155.1,190.8,154.8,192.2z"/>
	<g class="st14">
		<path class="st2" d="M172.5,171.4c-0.3-0.3-0.5-0.7-0.6-1.2c0-0.2-0.1-0.4-0.2-0.6s-0.3-0.4-0.4-0.5c-1.7,1.1-0.8,4.3-2.5,5.3
			c-0.3,0.2-0.8,0.3-0.9,0.7c-0.1,0.2-0.1,0.3-0.1,0.5c0,0.2,0.1,0.3,0.2,0.5c0.3,0.2,0.6,0.4,0.9,0.4c0.7,0.1,1.4,0,2-0.3
			c0.6-0.3,1.2-0.7,1.6-1.3c0.7-0.9,1.1-2.4,0.8-3.5c-0.1,0.1-0.3,0.1-0.4,0.1S172.6,171.5,172.5,171.4z"/>
		<path class="st2" d="M154.8,192.2c0,0.1-0.1,0.3,0,0.3c0.1,0.1,0.3-0.1,0.5-0.2c0.4-0.5,0.9-0.9,1.5-1.1c0.6-0.2,1.2-0.2,1.8,0
			c0.4,0,0.6-0.7,0.3-1c-0.2-0.1-0.4-0.3-0.6-0.3s-0.4-0.1-0.7-0.1c-0.4,0.1-0.9,0-1.3-0.2c-0.2-0.1-0.4-0.4-0.5-0.6
			c-0.1-0.3-0.1-0.5-0.1-0.8C155.5,189.5,155.1,190.8,154.8,192.2z"/>
	</g>
	<path class="st12" d="M177.4,171c-1-0.1-2-0.2-2.9-0.6c-1.1-0.6-1.8-1.9-3-2c-1.1-0.1-1.9,1-2.5,1.9c0-0.7,0.2-1.3,0.6-1.9
		c0.4-0.6,0.9-1,1.6-1.2c1.3-0.5,2.7-0.4,4,0.2c1.2,0.6,2.4,1.3,3.4,2.2c0.5,0.3,0.8,0.7,1.2,1.1C181.2,172.6,178.3,171.1,177.4,171
		z"/>
	<path class="st13" d="M177.4,171c-1-0.1-2-0.2-2.9-0.6c-1.1-0.6-1.8-1.9-3-2c-1.1-0.1-1.9,1-2.5,1.9c0-0.7,0.2-1.3,0.6-1.9
		c0.4-0.6,0.9-1,1.6-1.2c1.3-0.5,2.7-0.4,4,0.2c1.2,0.6,2.4,1.3,3.4,2.2c0.5,0.3,0.8,0.7,1.2,1.1C181.2,172.6,178.3,171.1,177.4,171
		z"/>
	<path class="st12" d="M160,202.5c0.1-0.1,0.1-0.2,0.2-0.4c-0.1,0-0.1,0.1-0.1,0.2C160,202.4,160,202.5,160,202.5z"/>
	<path class="st12" d="M161.7,193.9c-0.1-1.4,0.1-2.7,0-4.1c-0.1-1.4-0.4-2.8-1.4-3.8c-1.4-1.4-5.4-0.7-4,1.9
		c0.2,0.4,0.5,0.6,0.9,0.8c0.4,0.1,0.8,0.1,1.2,0c0.2-0.1,0.3-0.2,0.5-0.4s0.2-0.3,0.3-0.5c0.1-0.2,0.1-0.4,0.1-0.6
		c0-0.2-0.1-0.4-0.2-0.6c0.8,1.2,1.2,2.7,1.1,4.1c-0.1,1.4-0.6,2.8-1.4,4c1,0.9,1.7,2.1,2,3.4c0.3,1.3,0.1,2.7-0.4,3.9
		c0.1-0.1,0.3-0.1,0.5-0.1s0.3,0.1,0.5,0.1c0.3,0.4,0.6,0.8,0.7,1.3c0.2,0.4,0.6,0.9,1,0.9c0.7-1.6,0.4-3.5,0-5.2
		C162.4,197.4,161.8,195.7,161.7,193.9z"/>
	<path class="st12" d="M176,168.1c-0.8-0.6-1.7-1-2.6-1.1L176,168.1z"/>
	<path class="st12" d="M182.6,185.5c-0.2-0.9-0.7-1.8-0.9-2.8c-0.6-2.2-0.2-4.5-0.5-6.7c-0.4-2.9-1.9-5.6-4.1-7.5l-1-0.4
		c1,0.7,1.7,1.8,2,2.9c0.8,2.7,1,5.4,1.4,8.2c0.5,4.2,1.3,8.5,2.3,12.6C182.4,189.8,183,187.6,182.6,185.5z"/>
	<path class="st12" d="M172,175.7c0.7-0.6,1.1-1.4,1.2-2.3c0.1-0.8,0.1-1.6-0.1-2.3c-0.1,0.2-0.2,0.3-0.3,0.4
		c-0.2,0.1-0.4,0.1-0.5,0.1c-0.5-0.2-0.8-0.5-1.1-1l-0.2,0.7l-0.1-0.4l-0.3,0.3c0.4,1.1,0.8,2.4,0.2,3.4c-0.3,0.5-0.8,0.9-1.3,1.2
		c0.4,0.2,0.8,0.3,1.3,0.3C171.2,176.1,171.7,175.9,172,175.7z"/>
	<path class="st12" d="M173.1,170.7l0,0.3C173.1,170.9,173.1,170.8,173.1,170.7z"/>
	<path class="st12" d="M170.2,182c-1.9-3.8-3.9-7.7-6-11.4c-1.2-2.2-2.6-4.3-4.2-6.2c-0.7-0.8-2.9-2.8-4-1.5
		c-0.8,0.8,0.2,2.4-0.7,3.3c0.2,0,1.3-0.1,1.4,0c2.5,3.1,3.8,6.9,3.7,10.8c0.8-0.6,1.9,0.2,2.5,1c3.8,4.8,7.3,9.9,10.6,15.1
		c-0.6-2.3-0.7-4.7-1.3-7C171.5,184.7,170.9,183.3,170.2,182z"/>
	<path class="st12" d="M192.8,191.3c1-2.5,1.6-5.1,1.7-7.7c0.1-2.4-0.5-4.9-1.7-7c-0.3-0.5-1.7-2.7-2.4-2.5
		c-1.3,0.3,0.4,2.6,0.7,3.1c1.1,2.1,2.3,4.4,2.2,6.8c-0.1,1.9-0.8,3.6-1.5,5.4c-0.5,1.2-0.7,2.5-0.8,3.8c-0.1,0.1-0.2,0.3-0.3,0.4
		c-0.8,1.2-2.1,2-3.5,2.3c0.6-1.7,1.1-3.3,1.6-5c0.2-0.6,0.3-1.4-0.1-1.8c0.1-0.2,0.2-0.5,0.2-0.7c-0.1-0.5-0.2-0.9-0.5-1.3
		c-0.7-1.6-0.5-3.5-0.3-5.2c0.2-2.2,0.3-4.4-0.3-6.5c-0.6-2.1-2.1-4-4.2-4.7l0.6,0.6l-0.7-0.5l1.3,2.7l-0.5,0.7
		c0.7-0.4,1.6,0.2,2,0.9c0.3,0.8,0.3,1.6,0.2,2.4c-0.4,4.5-0.2,9,0.7,13.5c0,1-0.3,2.1-0.8,3c-0.3,0.5-0.7,0.9-1.2,1.2
		c-0.5,0.3-1.1,0.4-1.6,0.3c0.1-0.5,0.1-1.1-0.1-1.6c-0.2-0.5-0.5-1-1-1.3c-1.1,1.6-0.5,4-0.3,5.7c0.3,2.7,0.7,5.4,1.3,8
		c0.2-2.3,0.7-4.5,1.4-6.7c0.6,2.2,1.2,4.4,1.8,6.6c0-0.6,0.1-1.2,0.3-1.8c0.1-0.3,0.4-0.5,0.6-0.6c0.3-0.1,0.6-0.2,0.9-0.1
		c0.2,0.1,0.4,0.3,0.6,0.5c0.2,0.2,0.3,0.4,0.3,0.7c1.6,3.8,2,8,1.1,12c0.7,0.4,1.7-0.1,2.2-0.8c0.3-0.8,0.5-1.6,0.4-2.5
		C193.1,206.2,192.9,198.8,192.8,191.3z"/>
	<path class="st12" d="M174,193.7c-0.4,0.6,1.1,3.1,1.3,3.7c1.2,3,2.4,6,3.7,9c-0.4-3.9-1.4-7.8-2.8-11.5
		C175.9,194.2,174.7,192.4,174,193.7z"/>
	<path class="st12" d="M175.9,177.8c-0.2,0.3-0.5,0.7-0.9,0.6c-0.4-0.1-0.4-0.6-0.4-0.9c0-2.1,0.1-4.2,0.1-6.2
		c-1.7,1.2-1.5,2.8-1.6,4.6c-0.1,1,0.2,6-0.5,6.6c1.7-1.4,3.1-3.1,4.1-5C176.5,177.2,176.1,177.5,175.9,177.8z"/>
	<g class="st14">
		<path class="st2" d="M160,202.5c0.1-0.1,0.1-0.2,0.2-0.4c-0.1,0-0.1,0.1-0.1,0.2C160,202.4,160,202.5,160,202.5z"/>
		<path class="st2" d="M161.7,193.9c-0.1-1.4,0.1-2.7,0-4.1c-0.1-1.4-0.4-2.8-1.4-3.8c-1.4-1.4-5.4-0.7-4,1.9
			c0.2,0.4,0.5,0.6,0.9,0.8c0.4,0.1,0.8,0.1,1.2,0c0.2-0.1,0.3-0.2,0.5-0.4s0.2-0.3,0.3-0.5c0.1-0.2,0.1-0.4,0.1-0.6
			c0-0.2-0.1-0.4-0.2-0.6c0.8,1.2,1.2,2.7,1.1,4.1c-0.1,1.4-0.6,2.8-1.4,4c1,0.9,1.7,2.1,2,3.4c0.3,1.3,0.1,2.7-0.4,3.9
			c0.1-0.1,0.3-0.1,0.5-0.1s0.3,0.1,0.5,0.1c0.3,0.4,0.6,0.8,0.7,1.3c0.2,0.4,0.6,0.9,1,0.9c0.7-1.6,0.4-3.5,0-5.2
			C162.4,197.4,161.8,195.7,161.7,193.9z"/>
		<path class="st2" d="M176,168.1c-0.8-0.6-1.7-1-2.6-1.1L176,168.1z"/>
		<path class="st2" d="M182.6,185.5c-0.2-0.9-0.7-1.8-0.9-2.8c-0.6-2.2-0.2-4.5-0.5-6.7c-0.4-2.9-1.9-5.6-4.1-7.5l-1-0.4
			c1,0.7,1.7,1.8,2,2.9c0.8,2.7,1,5.4,1.4,8.2c0.5,4.2,1.3,8.5,2.3,12.6C182.4,189.8,183,187.6,182.6,185.5z"/>
		<path class="st2" d="M172,175.7c0.7-0.6,1.1-1.4,1.2-2.3c0.1-0.8,0.1-1.6-0.1-2.3c-0.1,0.2-0.2,0.3-0.3,0.4
			c-0.2,0.1-0.4,0.1-0.5,0.1c-0.5-0.2-0.8-0.5-1.1-1l-0.2,0.7l-0.1-0.4l-0.3,0.3c0.4,1.1,0.8,2.4,0.2,3.4c-0.3,0.5-0.8,0.9-1.3,1.2
			c0.4,0.2,0.8,0.3,1.3,0.3C171.2,176.1,171.7,175.9,172,175.7z"/>
		<path class="st2" d="M173.1,170.7l0,0.3C173.1,170.9,173.1,170.8,173.1,170.7z"/>
		<path class="st2" d="M170.2,182c-1.9-3.8-3.9-7.7-6-11.4c-1.2-2.2-2.6-4.3-4.2-6.2c-0.7-0.8-2.9-2.8-4-1.5
			c-0.8,0.8,0.2,2.4-0.7,3.3c0.2,0,1.3-0.1,1.4,0c2.5,3.1,3.8,6.9,3.7,10.8c0.8-0.6,1.9,0.2,2.5,1c3.8,4.8,7.3,9.9,10.6,15.1
			c-0.6-2.3-0.7-4.7-1.3-7C171.5,184.7,170.9,183.3,170.2,182z"/>
		<path class="st2" d="M192.8,191.3c1-2.5,1.6-5.1,1.7-7.7c0.1-2.4-0.5-4.9-1.7-7c-0.3-0.5-1.7-2.7-2.4-2.5
			c-1.3,0.3,0.4,2.6,0.7,3.1c1.1,2.1,2.3,4.4,2.2,6.8c-0.1,1.9-0.8,3.6-1.5,5.4c-0.5,1.2-0.7,2.5-0.8,3.8c-0.1,0.1-0.2,0.3-0.3,0.4
			c-0.8,1.2-2.1,2-3.5,2.3c0.6-1.7,1.1-3.3,1.6-5c0.2-0.6,0.3-1.4-0.1-1.8c0.1-0.2,0.2-0.5,0.2-0.7c-0.1-0.5-0.2-0.9-0.5-1.3
			c-0.7-1.6-0.5-3.5-0.3-5.2c0.2-2.2,0.3-4.4-0.3-6.5c-0.6-2.1-2.1-4-4.2-4.7l0.6,0.6l-0.7-0.5l1.3,2.7l-0.5,0.7
			c0.7-0.4,1.6,0.2,2,0.9c0.3,0.8,0.3,1.6,0.2,2.4c-0.4,4.5-0.2,9,0.7,13.5c0,1-0.3,2.1-0.8,3c-0.3,0.5-0.7,0.9-1.2,1.2
			c-0.5,0.3-1.1,0.4-1.6,0.3c0.1-0.5,0.1-1.1-0.1-1.6c-0.2-0.5-0.5-1-1-1.3c-1.1,1.6-0.5,4-0.3,5.7c0.3,2.7,0.7,5.4,1.3,8
			c0.2-2.3,0.7-4.5,1.4-6.7c0.6,2.2,1.2,4.4,1.8,6.6c0-0.6,0.1-1.2,0.3-1.8c0.1-0.3,0.4-0.5,0.6-0.6c0.3-0.1,0.6-0.2,0.9-0.1
			c0.2,0.1,0.4,0.3,0.6,0.5c0.2,0.2,0.3,0.4,0.3,0.7c1.6,3.8,2,8,1.1,12c0.7,0.4,1.7-0.1,2.2-0.8c0.3-0.8,0.5-1.6,0.4-2.5
			C193.1,206.2,192.9,198.8,192.8,191.3z"/>
		<path class="st2" d="M174,193.7c-0.4,0.6,1.1,3.1,1.3,3.7c1.2,3,2.4,6,3.7,9c-0.4-3.9-1.4-7.8-2.8-11.5
			C175.9,194.2,174.7,192.4,174,193.7z"/>
		<path class="st2" d="M175.9,177.8c-0.2,0.3-0.5,0.7-0.9,0.6c-0.4-0.1-0.4-0.6-0.4-0.9c0-2.1,0.1-4.2,0.1-6.2
			c-1.7,1.2-1.5,2.8-1.6,4.6c-0.1,1,0.2,6-0.5,6.6c1.7-1.4,3.1-3.1,4.1-5C176.5,177.2,176.1,177.5,175.9,177.8z"/>
	</g>
</g>
<path class="st2" d="M155.4,191.9c-0.6,0.5-1.2,1.1-1.6,1.8L155.4,191.9z"/>
<path class="st15" d="M178.5,242.5l-5.8-18.3c-5.4-5.6-15.5-10.7-16.3-18.5c-1.1-10-2.7-9.6-2.7-12c0.6-1.2,1.1-2.5,1.5-3.8
	c0.3-1,0.4-2,0.6-3c0.1-0.5,0.3-1,0.7-1.3c0.4-0.3,0.9-0.5,1.4-0.4c0.7,0,1.4,0.3,1.9,0.8c1,0.9,1.6,2.2,1.7,3.5
	c0.1,1.3,0,2.7-0.3,4c1,2.1,1.7,4.4,2.1,6.8c0.5-1.9,0.8-3.7,1.3-5.6c0.1-0.1,0.1-0.2,0.2-0.3c-1-1.7-0.2-1.7-2.2-5.5
	c-3.2-6.5-6.8-12.7-9.6-20.9c-0.2-0.8-0.3-1.6-0.1-2.4c0.7-2.4,3.1-2.1,4.3-0.7c0.3,0.3,0.6,0.7,0.8,1.2c1.7,3.5,3.7,6.8,6,9.9
	l6.7,8.8c0,0,2-1.9,2.3-2.7c0.3-0.8,0-7.1,0-7.1s-0.4,1.2-1.5,1.2c-0.8,0-2.3,0.6-3.5-0.6c-0.5-0.5-0.7-1.1-0.8-1.8
	c-0.1-0.7,0.1-1.3,0.5-1.9l2.5-3.9c0.6-0.5,1.3-0.9,2-1c0.8-0.1,1.5-0.1,2.2,0.2c1.8,0.8,3.5,1.8,5.1,3.1c1.4-0.1,2.9,0.1,4.3,0.6
	c2,0.8,4.2,3.3,4.2,3.3s2.3,0,3.3,0.7c0.3,0.2,4.1,5.3,3.1,9.6c-0.6,2.5-0.8,6.2-1.1,7.2l-0.1,24.6l4.6,16.3"/>
<path class="st15" d="M180.1,171c1,3.6,1.5,7.4,1.5,11.1c0,0.6,0,1.3,0.2,1.9c0.1,0.3,0.2,0.6,0.5,0.8c0.2,0.2,0.5,0.4,0.8,0.5"/>
<path class="st15" d="M188,174.7c1.7,3.5,0,11.3,0.1,11.8c0.1,0.3,0.2,0.5,0.3,0.8s0.4,0.4,0.6,0.6"/>
<path class="st15" d="M173.7,170.5c-0.2,1.1-0.4,2.4-0.6,3.5c-0.6-0.6-1.2-1.2-1.6-2c-0.4-0.8-0.6-1.6-0.7-2.4"/>
<path class="st15" d="M163,200.2l-1.2,0.5"/>
<path class="st15" d="M163.3,201.2c-0.2,0.9-0.2,1.9,0,2.8"/>
<path class="st15" d="M170.3,190.8c0.4,0.8,0.9,1.6,1.3,2.4"/>
<path class="st15" d="M172.9,182l1.3-1.9"/>
<path class="st15" d="M191.5,190.8l-0.4,1.5"/>
<path class="st15" d="M188.3,186.8c0.4-1.2,0.8-2.5,1.2-3.7"/>
<path class="st15" d="M192.2,180.1c0.4-0.2,0.8-0.2,1.1-0.1c0.4,0.1,0.7,0.4,0.9,0.7"/>
<path class="st15" d="M184.2,173.8c0.5-0.1,0.9-0.1,1.4,0c0.5,0.1,0.9,0.3,1.3,0.6"/>
<path class="st15" d="M159.4,177.5c0.4-0.5,1-0.8,1.6-1.1s1.2-0.3,1.9-0.2"/>
<path class="st15" d="M154.4,167c0.4-0.3,0.8-0.5,1.3-0.6c0.5-0.1,1-0.1,1.5-0.1"/>
<path class="st15" d="M155.4,191.9c-0.6,0.5-1.2,1.1-1.6,1.8"/>
<path class="st15" d="M156,189.3c0.9-0.6,2.3,0.8,3.1,0.1c0.1-0.2,0.2-0.4,0.3-0.6c0-0.2,0-0.4,0-0.6c-0.1-0.4-0.2-0.8-0.2-1.3"/>
<path class="st15" d="M180.8,185.5c1.1,2.2,1.3,4.8,0.6,7.1"/>
<path class="st15" d="M187.2,188.9c0.2,1.1,0,2.1-0.6,3.1"/>
<path class="st4" d="M133.5,197.3c0.1,0.4,0,0.8-0.1,1.2c-0.4,1.7-1.4,6.5-1.8,9.2c-0.5,3.3-5.7,13.3-5.7,13.3s-4.8,6-7.3,9.2
	c-1.2,1.5-3.1,7.8-4.8,13.7c-2.1-0.6-4.1-1.3-6.1-2c-1.7-0.6-3.3-1.2-5-1.9c-3-1.2-5.9-2.6-8.7-4.2c0.9-3.3,1.5-5.9,1.5-6.1
	c0-0.3,2-4.2,2-4.2l-1.8-23.1l-1-3.5c-0.5-1.8-0.9-3.7-1-5.6c-0.2-2.9,0-5.7,0.7-8.5l3-4.5l1.4-0.1l4.4-6.1c0,0,2.4-0.7,3,1.1
	c0.6,1.8-2,5.1-2,5.1l-0.9,5.5l2.1,5.1l1.1,0.4c0,0,0.4-9,0.1-10.9l2.3-8.2c0.7-1.3,1.3-2.7,1.8-4.1c0.4-1.4,2.9-2.8,4.3-0.3
	c0.2,0.4,0.4,0.9,0.4,1.4c0,0.5,0,1-0.2,1.5c-0.6,1.7-1.1,3-1.1,3s-0.6,7-0.7,7.2c-0.1,0.2,1,10.4,1,10.4l0.9,0.4l0.3-9.8l1.9-9.2
	c0,0-0.2-4.4,3-3.9c0.5,0,1,0.1,1.4,0.4c0.4,0.3,0.7,0.6,0.9,1.1c0.8,1.6,0,12.1,0,12.1l0.8,10.9l1.2,8.4l1.4-5.8c0,0,0.1-8.3,5.3-9
	c0,0,1.6-0.3,1.9,0.8c0.3,1.1-0.8,3.3-0.6,5.4C133.2,194.7,133.4,196.4,133.5,197.3z"/>
<path class="st2" d="M131.9,187c-0.2-1.1-1.8-0.9-1.8-0.9c-5.3,0.3-6,8.5-6,8.5l-1.9,5.6l-0.6-8.5l0.1-10.9c0,0,1.6-10.5,0.9-12.1
	c-0.2-0.5-0.5-0.8-0.8-1.1c-0.4-0.3-0.9-0.4-1.3-0.5c-3.1-0.8-3.2,3.6-3.2,3.6l-2.6,9l-1.1,9.7l-0.9-0.5c0,0-0.4-10.3-0.2-10.5
	c0.2-0.2,1.2-7.1,1.2-7.1s0.6-1.3,1.3-2.9c0.2-0.5,0.3-1,0.3-1.5c0-0.5-0.1-1-0.3-1.5c-1.2-2.5-3.8-1.3-4.4,0
	c-0.6,1.4-1.3,2.7-2.1,4l-2.9,8.1c0.1,1.8-0.9,10.8-0.9,10.8l-1.1-0.5l-1.7-5.3l1.3-5.4c0,0,2.8-3.1,2.3-4.9
	c-0.5-1.8-2.9-1.3-2.9-1.3l-4.8,5.7h-1.4L93,181c-1.5,4.5-1.8,9.4-0.8,14.1l0.8,3.6v23.1c0,0-2.3,3.7-2.3,4.1c0,0.2-0.9,3.1-2.3,6.7
	c5.8,3.4,10.7,6,14.3,7.4c1.7,0.7,3.3,1.3,5,1.9c2.1-5.9,4.6-12.3,5.9-13.8c2.7-2.9,8-8.6,8-8.6s6-9.7,6.7-12.9
	c0.6-2.6,2-7.4,2.5-9.1c0.1-0.4,0.2-0.8,0.1-1.2c0-0.9-0.1-2.6-0.1-4C130.9,190.3,132.1,188.1,131.9,187z"/>
<defs>
	<filter id="Adobe_OpacityMaskFilter_1_" filterUnits="userSpaceOnUse" x="90.6" y="161.9" width="41.4" height="45.1">
		<feColorMatrix  type="matrix" values="1 0 0 0 0  0 1 0 0 0  0 0 1 0 0  0 0 0 1 0"/>
	</filter>
</defs>
<mask maskUnits="userSpaceOnUse" x="90.6" y="161.9" width="41.4" height="45.1" id="mask1_1216_35543_1_">
	<path class="st16" d="M131.9,187c-0.2-1.1-1.8-0.9-1.8-0.9c-5.3,0.3-6,8.5-6,8.5l-1.9,5.6l-0.6-8.5l0.1-10.9c0,0,1.6-10.5,0.9-12.1
		c-0.2-0.5-0.5-0.8-0.8-1.1c-0.4-0.3-0.9-0.4-1.3-0.5c-3.1-0.8-3.2,3.6-3.2,3.6l-2.6,9l-1.1,9.7l-0.9-0.5c0,0-0.4-10.3-0.2-10.5
		c0.2-0.2,1.2-7.1,1.2-7.1s0.6-1.3,1.3-2.9c0.2-0.5,0.3-1,0.3-1.5c0-0.5-0.1-1-0.3-1.5c-1.2-2.5-3.8-1.3-4.4,0
		c-0.6,1.4-1.3,2.7-2.1,4l-2.9,8.1c0.1,1.8-0.9,10.8-0.9,10.8l-1.1-0.5l-1.7-5.3l1.3-5.4c0,0,2.8-3.1,2.3-4.9
		c-0.5-1.8-2.9-1.3-2.9-1.3l-4.8,5.7h-1.4L93,181c-1.5,4.5-1.8,9.4-0.8,14.1l0.8,3.6v23.1c0,0-2.3,3.7-2.3,4.1
		c0,0.2-0.9,3.1-2.3,6.7c5.8,3.4,10.7,6,14.3,7.4c1.7,0.7,3.3,1.3,5,1.9c2.1-5.9,4.6-12.3,5.9-13.8c2.7-2.9,8-8.6,8-8.6
		s6-9.7,6.7-12.9c0.6-2.6,2-7.4,2.5-9.1c0.1-0.4,0.2-0.8,0.1-1.2c0-0.9-0.1-2.6-0.1-4C130.9,190.3,132.1,188.1,131.9,187z"/>
</mask>
<g class="st17">
	<path class="st12" d="M95.8,184.7c0.9-1.1,2.7-1.6,3.8-0.6c0.5,0.6,0.9,1.4,1,2.2c0.1,0.8,0.4,1.6,0.8,2.3c0.6,0.6,1.6,0.9,2.2,0.3
		c0.1,1.2,0.1,2.4,0.2,3.7c1.3-2.3,2-4.8,1.9-7.5c0-1.3-0.2-2.5,0.1-3.8c0.3-1.2,1.2-2.4,2.5-2.5c1.4-0.1,2.5,1.3,2.8,2.7
		c0.3,1.4,0,2.8-0.1,4.2c-0.1,2.1,0.3,4.3,1.2,6.2l0.9-1.8c0.3,1.2,0.6,2.4,0.8,3.6c0.2-2.6,0.5-5.3,0.7-7.9c0-0.7,0.2-1.5,0.5-2.2
		c0.2-0.3,0.4-0.6,0.7-0.8c0.3-0.2,0.7-0.3,1.1-0.3c1,0.1,1.6,1.2,1.9,2.1c2.5,7.1,1.5,14.9,0.4,22.3c0.7,0.1,1.3-0.6,1.5-1.3
		c0.1-0.7,0.2-1.4,0.4-2.1c0.3-0.7,1.1-1.2,1.7-0.8c0.9,0.6,0.3,2.3,1.2,2.7c0.3-2.2,1.2-4.3,2.5-6.1c0.6-0.8,1.5-1.6,2.5-1.3
		c0.4,0.1,0.7,0.3,0.9,0.6c0.2,0.3,0.4,0.7,0.4,1c0.1,0.7,1.2-2.3,1-1.6c0.4-4.3-0.4-4.7,0-9c0.1-0.8,1.3-2.1,0.8-2.7
		c-0.5-0.6-2-1.3-2.7-1s-2.9,1.4-3.3,2c-2.7,3.8-2.5,9.2-3.4,13.8c-0.7-7-1.4-14.1-0.2-21c0.7-3.8,2-7.8,0.8-11.4
		c-0.6-1.7-2.1-3.3-3.8-3c-1.4,0.3-2.2,1.7-2.8,3c-1.9,4.4-2.8,9.2-3.6,13.9l3.1-14.3c0.4-1.2,0.5-2.5,0.3-3.7
		c-0.2-1.2-1.1-2.5-2.3-2.7c-1.2-0.3-2.4,0.5-3.4,1.3c-3.3,3-4.5,7.6-5.6,12c0.5-1.1,0.7-2.3,0.6-3.5c-0.1-1.2-0.9-2.4-2-2.7
		c-1.5-0.3-2.9,1-3.6,2.4c-0.7,1.4-1,3-2.1,4.1c-0.8-0.9-2.2-0.8-3.2-0.2c-0.9,0.7-1.6,1.7-2,2.8c-1.7,3.9-2.5,8.2-2.2,12.5
		c0.4-0.9,1.1-1.6,1.9-2c0.8-0.5,1.8-0.7,2.7-0.6c-0.1-0.9-0.2-1.9-0.3-2.8"/>
	<path class="st12" d="M99.5,193.8c-0.1,0.7-0.1,1.4-0.1,2.1c0.1-0.1,0.2-0.3,0.3-0.4c0.1-0.1,0.3-0.2,0.4-0.2c0.1,0,0.3,0,0.5,0
		c0.2,0,0.3,0.1,0.4,0.2c0-0.5,0.1-0.9,0.3-1.3c0.2-0.4,0.2-1-0.2-1.2c-0.4-0.2-1,0.3-1.2,0.8c0-0.2,0-0.3-0.1-0.5L99.5,193.8z"/>
	<path class="st12" d="M107.4,192.5c-0.6,0.7-1,1.5-1.1,2.3c0.2-0.3,0.5-0.5,0.8-0.6c0.2-0.1,0.3-0.1,0.5,0c0.2,0,0.3,0.1,0.4,0.3
		c0.1,0.2,0.2,0.4,0.4,0.5c0.1,0,0.2,0,0.3,0c0.1,0,0.2-0.1,0.2-0.2c0.1-0.2,0.1-0.4,0.1-0.6c0.1-0.4,0-0.8-0.1-1.2
		c0-0.2-0.1-0.4-0.3-0.5c-0.1-0.1-0.3-0.3-0.5-0.3c-0.1,0-0.2,0-0.3,0s-0.2,0.1-0.3,0.1C107.6,192.3,107.5,192.3,107.4,192.5
		c0,0,0,0.1-0.1,0.2L107.4,192.5z"/>
	<path class="st12" d="M115.2,194.4c-0.6,0.8-1,1.8-1.2,2.8c0.4-0.1,0.8-0.3,1.1-0.6c0.3-0.3,0.7-0.5,1.1-0.6c0.1,0,0.2,0,0.3,0
		c0.1,0,0.2,0.1,0.3,0.1c0.1,0.1,0.1,0.1,0.2,0.2c0,0.1,0.1,0.2,0.1,0.3c0-0.5,0-0.9,0-1.4c0.1-0.5,0-0.9-0.1-1.4
		c-0.1-0.2-0.2-0.4-0.4-0.6c-0.2-0.1-0.4-0.2-0.7-0.2c-0.1,0-0.2,0-0.3,0.1c-0.1,0.1-0.2,0.1-0.3,0.2c-0.1,0.1-0.1,0.2-0.1,0.3
		c0,0.1,0,0.2,0,0.3L115.2,194.4z"/>
	<path class="st12" d="M93.9,197.2c-0.4,0.8-0.7,1.7-0.7,2.6c0-0.2,0.1-0.4,0.3-0.6c0.1-0.1,0.3-0.2,0.6-0.3c0.4,0,0.8,0.1,1.2,0.3
		c0.1-0.4,0.1-0.9,0.1-1.3c0-0.2-0.1-0.4-0.3-0.6c-0.1-0.2-0.3-0.3-0.5-0.3c-0.4-0.1-0.9,0.3-0.8,0.8l-0.1-0.3L93.9,197.2z"/>
	<path class="st13" d="M95.8,184.7c0.9-1.1,2.7-1.6,3.8-0.6c0.5,0.6,0.9,1.4,1,2.2c0.1,0.8,0.4,1.6,0.8,2.3c0.6,0.6,1.6,0.9,2.2,0.3
		c0.1,1.2,0.1,2.4,0.2,3.7c1.3-2.3,2-4.8,1.9-7.5c0-1.3-0.2-2.5,0.1-3.8c0.3-1.2,1.2-2.4,2.5-2.5c1.4-0.1,2.5,1.3,2.8,2.7
		c0.3,1.4,0,2.8-0.1,4.2c-0.1,2.1,0.3,4.3,1.2,6.2l0.9-1.8c0.3,1.2,0.6,2.4,0.8,3.6c0.2-2.6,0.5-5.3,0.7-7.9c0-0.7,0.2-1.5,0.5-2.2
		c0.2-0.3,0.4-0.6,0.7-0.8c0.3-0.2,0.7-0.3,1.1-0.3c1,0.1,1.6,1.2,1.9,2.1c2.5,7.1,1.5,14.9,0.4,22.3c0.7,0.1,1.3-0.6,1.5-1.3
		c0.1-0.7,0.2-1.4,0.4-2.1c0.3-0.7,1.1-1.2,1.7-0.8c0.9,0.6,0.3,2.3,1.2,2.7c0.3-2.2,1.2-4.3,2.5-6.1c0.6-0.8,1.5-1.6,2.5-1.3
		c0.4,0.1,0.7,0.3,0.9,0.6c0.2,0.3,0.4,0.7,0.4,1c0.1,0.7,1.2-2.3,1-1.6c0.4-4.3-0.4-4.7,0-9c0.1-0.8,1.3-2.1,0.8-2.7
		c-0.5-0.6-2-1.3-2.7-1s-2.9,1.4-3.3,2c-2.7,3.8-2.5,9.2-3.4,13.8c-0.7-7-1.4-14.1-0.2-21c0.7-3.8,2-7.8,0.8-11.4
		c-0.6-1.7-2.1-3.3-3.8-3c-1.4,0.3-2.2,1.7-2.8,3c-1.9,4.4-2.8,9.2-3.6,13.9l3.1-14.3c0.4-1.2,0.5-2.5,0.3-3.7
		c-0.2-1.2-1.1-2.5-2.3-2.7c-1.2-0.3-2.4,0.5-3.4,1.3c-3.3,3-4.5,7.6-5.6,12c0.5-1.1,0.7-2.3,0.6-3.5c-0.1-1.2-0.9-2.4-2-2.7
		c-1.5-0.3-2.9,1-3.6,2.4c-0.7,1.4-1,3-2.1,4.1c-0.8-0.9-2.2-0.8-3.2-0.2c-0.9,0.7-1.6,1.7-2,2.8c-1.7,3.9-2.5,8.2-2.2,12.5
		c0.4-0.9,1.1-1.6,1.9-2c0.8-0.5,1.8-0.7,2.7-0.6c-0.1-0.9-0.2-1.9-0.3-2.8"/>
	<g class="st14">
		<path class="st2" d="M99.5,193.8c-0.1,0.7-0.1,1.4-0.1,2.1c0.1-0.1,0.2-0.3,0.3-0.4c0.1-0.1,0.3-0.2,0.4-0.2c0.1,0,0.3,0,0.5,0
			c0.2,0,0.3,0.1,0.4,0.2c0-0.5,0.1-0.9,0.3-1.3c0.2-0.4,0.2-1-0.2-1.2c-0.4-0.2-1,0.3-1.2,0.8c0-0.2,0-0.3-0.1-0.5L99.5,193.8z"/>
		<path class="st2" d="M107.4,192.5c-0.6,0.7-1,1.5-1.1,2.3c0.2-0.3,0.5-0.5,0.8-0.6c0.2-0.1,0.3-0.1,0.5,0c0.2,0,0.3,0.1,0.4,0.3
			c0.1,0.2,0.2,0.4,0.4,0.5c0.1,0,0.2,0,0.3,0c0.1,0,0.2-0.1,0.2-0.2c0.1-0.2,0.1-0.4,0.1-0.6c0.1-0.4,0-0.8-0.1-1.2
			c0-0.2-0.1-0.4-0.3-0.5c-0.1-0.1-0.3-0.3-0.5-0.3c-0.1,0-0.2,0-0.3,0s-0.2,0.1-0.3,0.1C107.6,192.3,107.5,192.3,107.4,192.5
			c0,0,0,0.1-0.1,0.2L107.4,192.5z"/>
		<path class="st2" d="M115.2,194.4c-0.6,0.8-1,1.8-1.2,2.8c0.4-0.1,0.8-0.3,1.1-0.6c0.3-0.3,0.7-0.5,1.1-0.6c0.1,0,0.2,0,0.3,0
			c0.1,0,0.2,0.1,0.3,0.1c0.1,0.1,0.1,0.1,0.2,0.2c0,0.1,0.1,0.2,0.1,0.3c0-0.5,0-0.9,0-1.4c0.1-0.5,0-0.9-0.1-1.4
			c-0.1-0.2-0.2-0.4-0.4-0.6c-0.2-0.1-0.4-0.2-0.7-0.2c-0.1,0-0.2,0-0.3,0.1c-0.1,0.1-0.2,0.1-0.3,0.2c-0.1,0.1-0.1,0.2-0.1,0.3
			c0,0.1,0,0.2,0,0.3L115.2,194.4z"/>
		<path class="st2" d="M93.9,197.2c-0.4,0.8-0.7,1.7-0.7,2.6c0-0.2,0.1-0.4,0.3-0.6c0.1-0.1,0.3-0.2,0.6-0.3c0.4,0,0.8,0.1,1.2,0.3
			c0.1-0.4,0.1-0.9,0.1-1.3c0-0.2-0.1-0.4-0.3-0.6c-0.1-0.2-0.3-0.3-0.5-0.3c-0.4-0.1-0.9,0.3-0.8,0.8l-0.1-0.3L93.9,197.2z"/>
	</g>
</g>
<path class="st15" d="M88.5,232.6c1.3-3.6,2.3-6.6,2.3-6.7c0-0.4,2.3-4.1,2.3-4.1v-23.1l-0.8-3.6c-1-4.7-0.7-9.5,0.8-14.1l3.3-4.2
	h1.4l4.8-5.8c0,0,2.4-0.6,2.9,1.3c0.5,1.8-2.3,4.9-2.3,4.9l-1.3,5.4l1.7,5.3l1.1,0.5c0,0,1-9,0.9-10.8l2.9-8.1
	c0.8-1.3,1.5-2.6,2.1-4c0.6-1.3,3.1-2.5,4.4,0c0.2,0.5,0.3,1,0.3,1.5c0,0.5-0.1,1-0.3,1.5c-0.7,1.7-1.3,2.9-1.3,2.9
	s-1.1,6.9-1.2,7.1s0.2,10.5,0.2,10.5l0.9,0.5l1.1-9.7l2.6-9c0,0,0.2-4.4,3.2-3.6c0.5,0,0.9,0.2,1.3,0.5c0.4,0.3,0.7,0.7,0.8,1.1
	c0.7,1.6-0.9,12.1-0.9,12.1l0,10.9l0.6,8.5l1.9-5.6c0,0,0.7-8.2,6-8.5c0,0,1.6-0.2,1.8,0.9c0.2,1.1-1,3.2-1,5.3c0,1.5,0.1,3.2,0.1,4
	c0,0.4,0,0.8-0.1,1.2c-0.5,1.7-1.9,6.4-2.5,9.1c-0.7,3.2-6.7,12.9-6.7,12.9s-5.3,5.6-8,8.6c-1.4,1.5-3.8,7.8-5.9,13.8"/>
<path class="st2" d="M104.5,189.3c0.2,0.6,0.2,1.1,0,1.7c-0.1,0.6-0.4,1.1-0.8,1.5"/>
<path class="st15" d="M104.5,189.3c0.2,0.6,0.2,1.1,0,1.7c-0.1,0.6-0.4,1.1-0.8,1.5"/>
<path class="st2" d="M95.5,197.1c0.8-1.2,1.5-2.8,1.3-4.2c-0.4-2.7-1.7-5.9-1.1-8.6c0.4-1.7,0.7-3.5,1.1-5.2"/>
<path class="st15" d="M95.5,197.1c0.8-1.2,1.5-2.8,1.3-4.2c-0.4-2.7-1.7-5.9-1.1-8.6c0.4-1.7,0.7-3.5,1.1-5.2"/>
<path class="st15" d="M117.7,171.3c0.9-0.2,1.9-0.2,2.8,0c0-0.3,0-0.5,0-0.8"/>
<path class="st15" d="M110.4,167.8c0.3,0.2,0.6,0.3,0.9,0.3c0.3,0,0.6-0.1,0.9-0.2s0.5-0.4,0.7-0.7c0.2-0.3,0.3-0.6,0.3-0.9"/>
<path class="st15" d="M130.5,187.1c-0.8,0.2-1.4,0.7-1.9,1.3c-0.5,0.6-0.7,1.4-0.6,2.2l1.4,0.4"/>
<path class="st2" d="M112.6,187.8c0.1,0.9-0.1,3.2,0,4.1V187.8z"/>
<path class="st15" d="M112.6,187.8c0.1,0.9-0.1,3.2,0,4.1"/>
<path class="st2" d="M113.6,189.1c-0.1,1.5-0.2,3.1-0.3,4.6c0-0.2,0-0.4,0-0.6"/>
<path class="st15" d="M113.6,189.1c-0.1,1.5-0.2,3.1-0.3,4.6c0-0.2,0-0.4,0-0.6"/>
<path class="st2" d="M122.1,202c0.4,1.7,0.2,3.5-0.5,5L122.1,202z"/>
<path class="st15" d="M122.1,202c0.4,1.7,0.2,3.5-0.5,5"/>
<path class="st15" d="M108,194c-1.2,1.3-1,4.5-0.2,6.3"/>
<path class="st15" d="M117,196.2c0,1.5-0.5,2.9-1.5,4.1"/>
<path class="st15" d="M99.2,194.6c-0.2,1.4,0.1,2.7,0.8,3.9"/>
<path class="st15" d="M94,198.8c-0.1,1.1,0.2,2.1,0.9,3"/>
<path class="st15" d="M101.1,173.1c0.3-0.1,0.7-0.2,1-0.1c0.3,0.1,0.7,0.2,0.9,0.5l0.7-0.9"/>
<path class="st15" d="M106.8,177.2c0.5-0.3,1-0.4,1.6-0.3c0.5,0.1,1,0.4,1.4,0.8"/>
<path class="st15" d="M115.7,180c0.5-0.2,1-0.3,1.6-0.3c0.5,0,1.1,0.1,1.6,0.4"/>
<path class="st15" d="M95.9,184.7c0.3-0.5,0.7-0.9,1.2-1.1c0.5-0.3,1.1-0.4,1.7-0.3"/>
<path class="st15" d="M92.2,190c0-0.4,0.2-0.7,0.4-1c0.2-0.3,0.6-0.4,0.9-0.5"/>
<path class="st18" d="M235.4,150c12.7,0,23-10.3,23-23s-10.3-23-23-23c-12.7,0-23,10.3-23,23S222.7,150,235.4,150z"/>
<path class="st4" d="M261.5,127.6c-4.9,8.1-6.7,7-23.4,15c-8.5,4.1-16.7-9-11.2-22.5c0.3-0.7,2.7-4,2.7-4c0.5-2.2,1.6-4.3,3.3-5.9
	c1.6-1.6,3.7-2.8,5.9-3.3c2.2-0.5,4.6-0.4,6.7,0.3c2.2,0.7,4.1,2.1,5.6,3.8c1.6-1.4,3.5-2.3,5.5-2.8s4.2-0.5,6.2,0
	c0.2,0.6,0.4,1.1,0.6,1.7c0.1,0.2,0.1,0.4,0.2,0.6c0.2,0.7,0.4,1.3,0.6,2c0.4,1.2,0.7,2.5,1,3.8c-1.8-0.6-3.8-0.5-5.5,0.3
	c-1.2,0.6-2.3,1.6-3.5,2.1c-1.3,0.5-3,0.2-3.5-1.1c0.6,2.6,3.3,1.8,5.9,2.3C262.6,120.7,263.6,124.2,261.5,127.6z"/>
<path class="st19" d="M254,123.6c0,0,4.1-0.6,6.1-0.3c0.9,0.1,1.8,0.6,2.4,1.4c0.2,0.2,0.3,0.5,0.3,0.7l0.2,3.2c0,0.2,0,0.4-0.1,0.5
	c-0.1,0.2-0.2,0.3-0.3,0.5c-0.8,0.8-3.2,2.4-10.4,2.9C242,133.4,254,123.6,254,123.6z"/>
<path class="st19" d="M250.9,115.3c2.2,2.8,3.4,6.3,3.4,9.8c0,3.8-4.4,17-15.8,18.6c-12.1,1.7-21.8-8.6-19.7-21
	C220.2,114,241.3,103.3,250.9,115.3z"/>
<path class="st2" d="M236.2,140.8c9.7,0,17.5-7.4,17.5-16.6c0-9.1-7.8-16.6-17.5-16.6c-9.7,0-17.5,7.4-17.5,16.6
	C218.7,133.4,226.5,140.8,236.2,140.8z"/>
<path class="st9" d="M236.2,138.7c7.9,0,14.4-6.1,14.4-13.6c0-7.5-6.4-13.6-14.4-13.6c-7.9,0-14.4,6.1-14.4,13.6
	C221.8,132.6,228.2,138.7,236.2,138.7z"/>
<path class="st18" d="M253.7,124.2c0-9.1-7.8-16.6-17.5-16.6c-9.7,0-17.5,7.4-17.5,16.6"/>
<path class="st18" d="M249.1,135.4c2.9-3,4.6-7,4.6-11.2"/>
<path class="st18" d="M223.9,136c3.3,3.1,7.7,4.8,12.2,4.7c2.8,0,5.6-0.6,8.1-1.9"/>
<path class="st18" d="M221.4,133.1c0.2,0.3,0.5,0.7,0.7,1"/>
<path class="st18" d="M218.7,124.2c0,2.5,0.6,4.9,1.7,7.1"/>
<path class="st2" d="M261.9,128.8c0,0-3.1-2.2-8.2-0.2L261.9,128.8z"/>
<path class="st18" d="M261.9,128.8c0,0-3.1-2.2-8.2-0.2"/>
<path class="st2" d="M259.2,130.3c-2.1,0.6-4.3,0.9-6.5,1L259.2,130.3z"/>
<path class="st18" d="M259.2,130.3c-2.1,0.6-4.3,0.9-6.5,1"/>
<path class="st2" d="M260.8,129.6c-0.2,0.2-0.5,0.3-0.8,0.4L260.8,129.6z"/>
<path class="st18" d="M260.8,129.6c-0.2,0.2-0.5,0.3-0.8,0.4"/>
<path class="st2" d="M263.6,110.6c-0.1-0.2-0.1-0.4-0.2-0.6c-1.1-3.3-2.4-6.9-4.1-10.7c-0.3-0.7-0.6-1.4-1-2.1l-0.4,0
	c-1.6,0.2-3.3,0.4-4.6,1.3c-1.3,0.9-2.1,2.8-1.2,4.2s3,2.1,2.7,3.6c-3.6,2-7.9,1.8-11.9,2.8c-2.4,0.6-4.6,1.7-6.6,3.1
	c-0.6,0.5-1.2,1-1.8,1.5c-0.3,0.2-0.5,0.5-0.7,0.8c-0.3,0.4-0.6,0.9-0.6,1.4c-0.1,1.5,1.2,2.5,2.7,3.1c0.1,0,0.1,0.1,0.1,0.1
	c0,0.1,0.1,0.1,0.1,0.2c0,0.1,0,0.1-0.1,0.2c0,0.1-0.1,0.1-0.1,0.1c-0.9,0.3-1.8,0.8-2.6,1.5c-0.1,0.1-0.2,0.2-0.2,0.4
	c0,0.1,0,0.3,0.1,0.4c0.1,0.1,0.2,0.2,0.3,0.3c0.1,0.1,0.3,0.1,0.4,0.1h0.2c0.6,0,1.1,0,1.7,0.2c0.4,0.1,0.7,0.3,1,0.6
	c0.3,0.3,0.4,0.6,0.5,1c0.1,1.1-1.2,2.1-2.9,2.3c-0.4,0-0.1,0.5,0.5,0.6c1.2,0.1,2.4,0,3.6-0.3c1.4-0.3,2.9-0.8,3.7-2
	c0.3-0.5,0.4-1.2,0.3-1.8c0-0.4-0.2-0.8-0.5-1.1c-0.3-0.3-0.6-0.5-1-0.6c2.6-0.3,5.1-0.8,7.6-1.5l0.8-0.2c0.8-0.2,1.5-0.5,2.2-0.9
	c0.4-0.3,0.7-0.6,0.9-1c0.6-1.1-0.2-2.9-1.5-2.7c3.6-1.4,7.4-2.2,11-3.5C262.4,111,263,110.8,263.6,110.6z"/>
<path class="st4" d="M236.1,62.5c-3.4,2.9-7.1,5.5-11.1,7.8c-20.2,12-43.1,19.1-66.4,22.6c-23.3,3.5-46.9,3.4-70.4,1.5
	c-4.6-0.4-9.3-0.8-13.5-2.7c-3.6-1.6-6.8-4.3-8.3-7.9c5.1-5.8,9.8-11.6,15.1-17.2c1.3-1.3,2.5-2.6,3.8-3.9c1.1-1.1,2.2-2.1,3.4-3.1
	c1.3-1.2,2.7-2.3,4.1-3.4c2-1.5,4.1-3,6.3-4.4c0.6-0.4,1.1-0.7,1.6-1c55.4-34.5,96.2-23.2,123.5,0c2.1,1.8,4.1,3.6,6,5.4
	c1.2,1.1,2.3,2.3,3.3,3.4c0.1,0.1,0.2,0.3,0.3,0.4C234.6,60.8,235.4,61.6,236.1,62.5z"/>
<path class="st19" d="M238.3,56.9L51.8,57.8l2.8-4.2c0.7-1,1.6-1.8,2.6-2.4c1.1-0.6,2.2-0.9,3.4-0.9h168.8c1.1,0,2.2,0.2,3.2,0.7
	c1,0.5,1.9,1.2,2.5,2L238.3,56.9z"/>
<path class="st20" d="M148.3,84.9h-10.2c-10.5,0-19,8.5-19,19v10.2c0,10.5,8.5,19,19,19h10.2c10.5,0,19-8.5,19-19v-10.2
	C167.3,93.4,158.8,84.9,148.3,84.9z"/>
<path class="st21" d="M127.8,113.1v6.8c0,1,0.4,2,1.1,2.8c0.7,0.7,1.7,1.1,2.8,1.1h23.5c1,0,2-0.4,2.7-1.1c0.7-0.7,1.1-1.7,1.1-2.7
	c0-3.1,0.2-6.9,0.2-6.9H127.8z"/>
<path class="st22" d="M213.8,115.3H76.4c-0.7,0-1.4-0.2-2-0.6c-0.6-0.4-1-1-1.3-1.6L51.9,58.7c-0.1-0.3-0.2-0.7-0.1-1
	c0-0.4,0.2-0.7,0.4-1s0.5-0.5,0.8-0.7c0.3-0.2,0.7-0.3,1-0.3h182.4c0.4,0,0.7,0.1,1,0.2c0.3,0.2,0.6,0.4,0.8,0.7
	c0.2,0.3,0.3,0.6,0.4,1c0,0.4,0,0.7-0.1,1l-21.2,54.4c-0.3,0.7-0.7,1.2-1.3,1.6C215.2,115.1,214.6,115.3,213.8,115.3z"/>
<path class="st9" d="M214.9,110.6H75L55.8,59.2H234L214.9,110.6z"/>
<path class="st9" d="M159.1,115.3H128v2.1h31.2V115.3z"/>
<path class="st0" d="M194.4,108.4H95.7c-0.6,0-1.1-0.2-1.2-0.6l-14-44.6c-0.2-0.5,0.3-0.9,1-0.9h127.2c0.7,0,1.1,0.4,1,0.9l-14,44.6
	C195.5,108.1,195,108.4,194.4,108.4z"/>
<path class="st9" d="M194.1,107.4h-98L84.1,68.2H206L194.1,107.4z"/>
<path class="st2" d="M110.1,77.9H91.6c-0.5,0-0.8,0.2-0.7,0.6c0.1,0.2,0.2,0.3,0.4,0.4c0.2,0.1,0.4,0.1,0.6,0.1h18.4
	c0.5,0,0.8-0.2,0.7-0.6C111,78.2,110.6,77.9,110.1,77.9z"/>
<path class="st2" d="M110.8,81.3H95c-0.5,0-0.8,0.2-0.7,0.6c0.1,0.2,0.2,0.3,0.4,0.4c0.2,0.1,0.4,0.1,0.6,0.1H111
	c0.4,0,0.8-0.2,0.7-0.5C111.6,81.6,111.2,81.3,110.8,81.3z"/>
<path class="st13" d="M111.4,84.6H93.5c-0.4,0-0.7,0.2-0.7,0.5c0.1,0.2,0.2,0.3,0.4,0.4c0.2,0.1,0.4,0.1,0.5,0.1h17.8
	c0.4,0,0.8-0.2,0.7-0.5C112.2,84.8,111.8,84.6,111.4,84.6z"/>
<path class="st2" d="M111.9,87.7h-10.5c-0.4,0-0.7,0.2-0.7,0.5c0.1,0.3,0.5,0.5,0.9,0.5h10.5c0.4,0,0.7-0.2,0.7-0.5
	C112.8,87.9,112.4,87.7,111.9,87.7z"/>
<path class="st2" d="M112.5,90.8H95.2c-0.4,0-0.7,0.2-0.6,0.5c0.1,0.3,0.5,0.5,0.9,0.5h17.2c0.4,0,0.7-0.2,0.7-0.5
	C113.3,91,112.9,90.8,112.5,90.8z"/>
<path class="st2" d="M113,93.7h-14c-0.4,0-0.7,0.2-0.6,0.5c0.1,0.3,0.5,0.5,0.9,0.5h13.9c0.4,0,0.7-0.2,0.7-0.5
	C113.8,93.9,113.5,93.7,113,93.7z"/>
<path class="st2" d="M113.6,96.6H99.8c-0.4,0-0.7,0.2-0.6,0.4c0.1,0.2,0.5,0.5,0.9,0.5h13.7c0.4,0,0.7-0.2,0.7-0.5
	C114.3,96.8,114,96.6,113.6,96.6z"/>
<path class="st2" d="M114.1,99.3h-15c-0.4,0-0.7,0.2-0.6,0.4c0.1,0.2,0.4,0.4,0.9,0.4h14.9c0.4,0,0.7-0.2,0.7-0.4
	C114.8,99.5,114.5,99.3,114.1,99.3z"/>
<path class="st13" d="M114.6,102h-9.7c-0.4,0-0.7,0.2-0.6,0.4c0.1,0.2,0.4,0.4,0.8,0.4h9.6c0.4,0,0.7-0.2,0.7-0.4S115,102,114.6,102
	z"/>
<path class="st13" d="M109.5,74.4H95.7c-0.5,0-0.8,0.3-0.7,0.6c0.1,0.2,0.2,0.3,0.4,0.4c0.2,0.1,0.4,0.1,0.6,0.1h13.7
	c0.5,0,0.8-0.3,0.7-0.6c-0.1-0.2-0.2-0.3-0.4-0.4C109.9,74.4,109.7,74.4,109.5,74.4z"/>
<path class="st2" d="M108.8,70.8H89.6c-0.5,0-0.8,0.3-0.7,0.6c0.1,0.2,0.2,0.3,0.4,0.4c0.2,0.1,0.4,0.2,0.6,0.1H109
	c0.5,0,0.8-0.3,0.8-0.6c-0.1-0.2-0.2-0.4-0.4-0.5C109.2,70.8,109,70.7,108.8,70.8z"/>
<path class="st2" d="M115,104.6h-16c-0.4,0-0.7,0.2-0.6,0.4c0.1,0.2,0.4,0.4,0.8,0.4h15.9c0.4,0,0.7-0.2,0.6-0.4
	C115.8,104.8,115.4,104.6,115,104.6z"/>
<path class="st13" d="M116.7,79.1h3.6l-0.2-1.4h-3.6L116.7,79.1z"/>
<path class="st13" d="M117.2,82.5h3.5l-0.2-1.3H117L117.2,82.5z"/>
<path class="st13" d="M117.6,85.7h3.5l-0.2-1.3h-3.5L117.6,85.7z"/>
<path class="st13" d="M118.1,88.8h3.4l-0.2-1.2h-3.4L118.1,88.8z"/>
<path class="st13" d="M118.6,91.9h3.4l-0.2-1.2h-3.4L118.6,91.9z"/>
<path class="st13" d="M119,94.8h3.3l-0.2-1.2h-3.3L119,94.8z"/>
<path class="st13" d="M119.4,97.6h3.2l-0.1-1.1h-3.3L119.4,97.6z"/>
<path class="st13" d="M119.8,100.3h3.2l-0.1-1.1h-3.2L119.8,100.3z"/>
<path class="st13" d="M120.2,103h3.1l-0.1-1.1h-3.2L120.2,103z"/>
<path class="st13" d="M116.1,75.7h3.7l-0.2-1.4h-3.7L116.1,75.7z"/>
<path class="st13" d="M115.6,72.1h3.7l-0.2-1.5h-3.8L115.6,72.1z"/>
<path class="st13" d="M120.6,105.5h3.1l-0.1-1h-3.1L120.6,105.5z"/>
<path class="st2" d="M139.6,99.8c0-0.2,0.3-0.4,0.7-0.4h53.3c0.4,0,0.7,0.2,0.6,0.4c-0.1,0.1-0.2,0.3-0.4,0.3
	c-0.2,0.1-0.3,0.1-0.5,0.1h-53C139.9,100.2,139.6,100,139.6,99.8z"/>
<path class="st2" d="M194.1,97.5h-29.5c-0.4,0-0.7-0.2-0.7-0.5c0-0.3,0.4-0.4,0.8-0.4h29.7c0.4,0,0.7,0.2,0.6,0.4
	c-0.1,0.2-0.2,0.3-0.4,0.4C194.5,97.5,194.3,97.5,194.1,97.5z"/>
<path class="st13" d="M157.6,97.5h-9.2c-0.4,0-0.7-0.2-0.7-0.5c0-0.3,0.3-0.4,0.8-0.4h9.2c0.4,0,0.7,0.2,0.7,0.4
	C158.4,97.3,158,97.5,157.6,97.5z"/>
<path class="st2" d="M176.8,94.6h-41.6c-0.4,0-0.8-0.2-0.8-0.5c0-0.3,0.3-0.5,0.7-0.5h41.8c0.4,0,0.7,0.2,0.7,0.5
	C177.6,94.4,177.2,94.6,176.8,94.6z"/>
<path class="st13" d="M126.5,93.7h3c0.4,0,0.8,0.2,0.8,0.5c0,0.3-0.3,0.5-0.7,0.5h-3c-0.4,0-0.8-0.2-0.8-0.5
	C125.7,93.9,126,93.7,126.5,93.7z"/>
<path class="st2" d="M182.8,91.3c-0.1,0.3-0.4,0.5-0.9,0.5h-39.2c-0.4,0-0.8-0.2-0.8-0.5c0-0.3,0.3-0.5,0.8-0.5h39.4
	C182.5,90.8,182.8,91,182.8,91.3z"/>
<path class="st2" d="M126.1,90.8h11.1c0.4,0,0.8,0.2,0.8,0.5c0,0.3-0.3,0.5-0.8,0.5h-11.1c-0.4,0-0.8-0.2-0.8-0.5
	C125.4,91,125.7,90.8,126.1,90.8z"/>
<path class="st2" d="M125.8,87.7h42.8c0.4,0,0.8,0.2,0.7,0.5c0,0.3-0.4,0.5-0.9,0.5h-42.5c-0.4,0-0.8-0.2-0.8-0.5
	C125.1,87.9,125.4,87.7,125.8,87.7z"/>
<path class="st2" d="M153.6,85.6c-0.4,0-0.8-0.2-0.8-0.5s0.4-0.5,0.8-0.5h22.6c0.4,0,0.8,0.2,0.7,0.5c0,0.3-0.4,0.5-0.9,0.5H153.6z"
	/>
<path class="st2" d="M125.5,84.6H145c0.4,0,0.8,0.2,0.8,0.5s-0.4,0.5-0.8,0.5h-19.4c-0.4,0-0.8-0.2-0.9-0.5
	C124.7,84.8,125,84.6,125.5,84.6z"/>
<path class="st2" d="M198.5,82.4h-53.8c-0.4,0-0.8-0.2-0.8-0.5s0.4-0.6,0.8-0.6h54.1c0.4,0,0.7,0.2,0.7,0.6
	c-0.1,0.2-0.2,0.3-0.4,0.4C198.8,82.3,198.6,82.4,198.5,82.4z"/>
<path class="st2" d="M199.4,79h-47.3c-0.5,0-0.8-0.2-0.8-0.6s0.4-0.6,0.8-0.6h47.6c0.5,0,0.8,0.2,0.7,0.6c-0.1,0.2-0.2,0.3-0.4,0.4
	C199.8,79,199.6,79,199.4,79z"/>
<path class="st13" d="M200.4,75.5h-9.9c-0.5,0-0.8-0.3-0.7-0.6c0.1-0.2,0.2-0.3,0.4-0.4c0.2-0.1,0.4-0.1,0.6-0.1h9.9
	c0.5,0,0.8,0.3,0.7,0.6c-0.1,0.2-0.2,0.3-0.4,0.4C200.8,75.5,200.6,75.6,200.4,75.5z"/>
<path class="st2" d="M183.6,75.5h-36.4c-0.5,0-0.8-0.3-0.8-0.6c0-0.3,0.4-0.6,0.8-0.6h36.6c0.5,0,0.8,0.3,0.7,0.6
	c-0.1,0.2-0.2,0.3-0.4,0.4S183.8,75.6,183.6,75.5z"/>
<path class="st2" d="M127.3,102h33.6c0.4,0,0.7,0.2,0.7,0.4c0,0.2-0.4,0.4-0.8,0.4h-33.4c-0.4,0-0.7-0.2-0.8-0.4
	C126.6,102.2,126.9,102,127.3,102z"/>
<path class="st2" d="M127.6,104.6h51.6c0.4,0,0.7,0.2,0.6,0.4c-0.1,0.2-0.4,0.4-0.8,0.4h-51.4c-0.4,0-0.7-0.2-0.8-0.4
	C126.9,104.8,127.2,104.6,127.6,104.6z"/>
<path class="st2" d="M181.8,71.9h-26.3c-0.5,0-0.8-0.3-0.8-0.6c0-0.3,0.4-0.6,0.9-0.6H182c0.5,0,0.8,0.3,0.8,0.6
	c-0.1,0.2-0.2,0.3-0.4,0.5C182.2,71.9,182,72,181.8,71.9z"/>
<path class="st13" d="M148,71.9h-23.9c-0.5,0-0.9-0.3-0.9-0.6c0-0.3,0.3-0.6,0.8-0.6h24c0.5,0,0.9,0.3,0.8,0.6
	C148.9,71.7,148.5,71.9,148,71.9z"/>
<path class="st13" d="M168.4,102c0.4,0,0.7,0.2,0.7,0.4c0,0.2-0.4,0.4-0.8,0.4h-2.6c-0.4,0-0.7-0.2-0.7-0.4c0-0.2,0.4-0.4,0.8-0.4
	H168.4z"/>
<path class="st13" d="M136.5,99.8c0,0.2-0.3,0.4-0.7,0.4h-3.5c-0.4,0-0.8-0.2-0.8-0.4c0-0.2,0.3-0.4,0.7-0.4h3.6
	C136.2,99.3,136.5,99.5,136.5,99.8z"/>
<path class="st13" d="M179.2,88.2c0,0.3-0.4,0.5-0.9,0.5h-4.1c-0.4,0-0.7-0.2-0.7-0.5c0-0.3,0.4-0.5,0.9-0.5h4.2
	C178.9,87.7,179.2,87.9,179.2,88.2z"/>
<path class="st13" d="M192.1,90.8c0.4,0,0.7,0.2,0.6,0.5c-0.1,0.2-0.2,0.3-0.4,0.4c-0.2,0.1-0.3,0.1-0.5,0.1h-3.3
	c-0.4,0-0.7-0.2-0.7-0.5c0.1-0.2,0.2-0.3,0.4-0.4c0.2-0.1,0.3-0.1,0.5-0.1H192.1z"/>
<path class="st13" d="M138.2,82.4c-0.4,0-0.8-0.2-0.8-0.5c0-0.3,0.3-0.6,0.8-0.6h3.5c0.4,0,0.8,0.2,0.8,0.6c0,0.3-0.4,0.5-0.8,0.5
	H138.2z"/>
<path class="st2" d="M90.4,65.2c0.1,0.2,0.1,0.4,0.1,0.6c0,0.2-0.1,0.4-0.2,0.6c-0.1,0.2-0.3,0.3-0.5,0.4c-0.2,0.1-0.4,0.1-0.6,0.1
	c-0.5,0-1-0.2-1.3-0.5c-0.4-0.3-0.7-0.7-0.8-1.2c-0.1-0.2-0.1-0.4-0.1-0.6c0-0.2,0.1-0.4,0.2-0.6c0.1-0.2,0.3-0.3,0.5-0.4
	c0.2-0.1,0.4-0.1,0.6-0.1c0.5,0,1,0.2,1.4,0.5C89.9,64.4,90.2,64.8,90.4,65.2z"/>
<path class="st2" d="M94.9,65.3c0.1,0.2,0.1,0.4,0.1,0.6c0,0.2-0.1,0.4-0.2,0.6c-0.1,0.2-0.3,0.3-0.5,0.4c-0.2,0.1-0.4,0.1-0.6,0.1
	c-0.5,0-0.9-0.2-1.3-0.5c-0.4-0.3-0.7-0.7-0.8-1.2c-0.1-0.2-0.1-0.4-0.1-0.6c0-0.2,0.1-0.4,0.2-0.6c0.1-0.2,0.3-0.3,0.5-0.4
	c0.2-0.1,0.4-0.1,0.6-0.1c0.5,0,1,0.2,1.3,0.5C94.5,64.4,94.8,64.8,94.9,65.3z"/>
<path class="st2" d="M99.5,65.2c0.1,0.2,0.1,0.4,0.1,0.6c0,0.2-0.1,0.4-0.2,0.6c-0.1,0.2-0.3,0.3-0.5,0.4c-0.2,0.1-0.4,0.1-0.6,0.1
	c-0.5,0-0.9-0.2-1.3-0.5c-0.4-0.3-0.6-0.7-0.8-1.2c-0.1-0.2-0.1-0.4,0-0.6c0-0.2,0.1-0.4,0.2-0.6c0.1-0.2,0.3-0.3,0.5-0.4
	c0.2-0.1,0.4-0.1,0.6-0.1c0.5,0,0.9,0.2,1.3,0.5C99.1,64.4,99.4,64.8,99.5,65.2z"/>
<path class="st23" d="M55.8,59.2l15,40l18.1-40H55.8z"/>
<path class="st23" d="M81.1,110.6l30-51.4h31.4l-44.1,51.4H81.1z"/>
<path class="st23" d="M156,58.9l-46.7,51.7h7.2l48.4-51.4L156,58.9z"/>
<path class="st23" d="M165.2,110.6l51.4-51.4h7.3l-53,51.4H165.2z"/>
<path class="st19" d="M95.6,132.9H83.9c-0.7,0-1.4,0.3-2,0.8c-0.5,0.5-0.8,1.2-0.8,2v5.7c0,0.7,0.3,1.4,0.8,2c0.5,0.5,1.2,0.8,2,0.8
	h3.1l2.3,5.3l3.3-5.3h3.1c0.7,0,1.4-0.3,2-0.8c0.5-0.5,0.8-1.2,0.8-2v-5.7c0-0.7-0.3-1.4-0.8-1.9C97,133.2,96.3,132.9,95.6,132.9z"
	/>
<path class="st9" d="M88.1,136.2c0-0.1,0.1-0.3,0.2-0.4c0.1-0.1,0.2-0.2,0.4-0.2c0.1,0,0.3,0.1,0.4,0.1c0.1,0.1,0.2,0.2,0.2,0.4
	c0,0.1-0.1,0.3-0.2,0.4c-0.1,0.1-0.2,0.2-0.4,0.2c-0.1,0-0.3-0.1-0.4-0.1C88.2,136.5,88.1,136.3,88.1,136.2z M88.2,137.3h0.9v3.8
	h-0.9V137.3z"/>
<path class="st9" d="M91.3,137.1v0.2h1v0.7h-1v3.1h-0.9v-3.1h-0.6v-0.7h0.6v-0.2c0-0.2,0-0.4,0.1-0.5s0.2-0.3,0.3-0.4
	c0.1-0.1,0.3-0.2,0.5-0.3c0.2-0.1,0.4-0.1,0.5-0.1c0.3,0,0.6,0.1,0.8,0.2l-0.3,0.7c-0.1-0.1-0.3-0.2-0.5-0.2
	C91.4,136.5,91.3,136.7,91.3,137.1z"/>
<path class="st19" d="M131.3,133.7h-11.7c-0.7,0-1.4,0.3-2,0.8c-0.5,0.5-0.8,1.2-0.8,2v5.7c0,0.7,0.3,1.4,0.8,2
	c0.5,0.5,1.2,0.8,2,0.8h3.1l2.3,5.3l3.3-5.3h3.1c0.7,0,1.4-0.3,2-0.8c0.5-0.5,0.8-1.2,0.8-2v-5.7c0-0.7-0.3-1.4-0.8-1.9
	C132.7,134,132,133.7,131.3,133.7z"/>
<path class="st9" d="M122,140.3h-3c0.1,0.3,0.2,0.5,0.4,0.7c0.2,0.2,0.5,0.2,0.8,0.2c0.2,0,0.4,0,0.6-0.1c0.2-0.1,0.3-0.2,0.5-0.3
	l0.5,0.6c-0.3,0.3-0.7,0.5-1.1,0.6c-0.4,0.1-0.8,0.1-1.2-0.1c-0.4-0.1-0.7-0.4-1-0.7c-0.2-0.3-0.4-0.7-0.4-1.1c0-0.3,0-0.5,0.1-0.8
	c0.1-0.2,0.2-0.5,0.4-0.6c0.2-0.2,0.4-0.3,0.6-0.4c0.2-0.1,0.5-0.1,0.8-0.1c0.3,0,0.5,0,0.8,0.1c0.2,0.1,0.5,0.2,0.6,0.4
	c0.2,0.2,0.3,0.4,0.4,0.7c0.1,0.2,0.1,0.5,0.1,0.8C122,140.1,122,140.3,122,140.3z M119,139.8h2.2c0-0.3-0.2-0.5-0.4-0.7
	c-0.2-0.2-0.5-0.3-0.7-0.2c-0.3,0-0.5,0.1-0.7,0.2C119.2,139.2,119,139.5,119,139.8z"/>
<path class="st9" d="M122.9,136.7h0.9v5.3h-0.9V136.7z"/>
<path class="st9" d="M124.5,141.6l0.3-0.7c0.4,0.2,0.9,0.4,1.3,0.4c0.6,0,0.8-0.2,0.8-0.4c0-0.7-2.4,0-2.4-1.6
	c0-0.7,0.7-1.2,1.7-1.2c0.5,0,1,0.1,1.4,0.3l-0.3,0.7c-0.3-0.2-0.7-0.3-1.1-0.3c-0.6,0-0.8,0.2-0.8,0.4c0,0.8,2.4,0.1,2.4,1.6
	c0,0.7-0.7,1.2-1.7,1.2C125.6,142,125,141.9,124.5,141.6z"/>
<path class="st9" d="M132.2,140.3h-3c0.1,0.3,0.2,0.5,0.4,0.7c0.2,0.2,0.5,0.2,0.8,0.2c0.2,0,0.4,0,0.6-0.1c0.2-0.1,0.3-0.2,0.5-0.3
	l0.5,0.6c-0.3,0.3-0.7,0.5-1.1,0.6c-0.4,0.1-0.8,0.1-1.2-0.1c-0.4-0.1-0.7-0.4-1-0.7c-0.2-0.3-0.4-0.7-0.4-1.1c0-0.3,0-0.5,0.1-0.8
	c0.1-0.2,0.2-0.5,0.4-0.6c0.2-0.2,0.4-0.3,0.6-0.4c0.2-0.1,0.5-0.1,0.8-0.1c0.3,0,0.5,0,0.8,0.1c0.2,0.1,0.5,0.2,0.6,0.4
	c0.2,0.2,0.3,0.4,0.4,0.7c0.1,0.2,0.1,0.5,0.1,0.8C132.2,140.1,132.2,140.3,132.2,140.3z M129.2,139.8h2.2c0-0.3-0.2-0.5-0.4-0.7
	s-0.5-0.3-0.7-0.2c-0.3,0-0.5,0.1-0.7,0.3C129.4,139.2,129.2,139.5,129.2,139.8z"/>
<path class="st19" d="M165.9,133.4h-11.7c-0.7,0-1.4,0.3-2,0.8c-0.5,0.5-0.8,1.2-0.8,1.9v5.7c0,0.7,0.3,1.4,0.8,2
	c0.5,0.5,1.2,0.8,2,0.8h3.1l2.3,5.3l3.3-5.3h3.1c0.7,0,1.4-0.3,2-0.8c0.5-0.5,0.8-1.2,0.8-2v-5.7c0-0.7-0.3-1.4-0.8-1.9
	C167.3,133.7,166.6,133.4,165.9,133.4z"/>
<path class="st9" d="M156.9,137.6v0.2h1v0.7h-1v3.1H156v-3.1h-0.6v-0.7h0.6v-0.2c0-0.2,0-0.4,0.1-0.5c0.1-0.2,0.2-0.3,0.3-0.4
	c0.1-0.1,0.3-0.2,0.5-0.3c0.2-0.1,0.4-0.1,0.5-0.1c0.3,0,0.6,0.1,0.8,0.2l-0.3,0.7c-0.1-0.1-0.3-0.2-0.5-0.2
	C157.1,137,156.9,137.2,156.9,137.6z"/>
<path class="st9" d="M158.1,139.7c0-0.4,0.1-0.8,0.3-1.2s0.5-0.6,0.9-0.8c0.4-0.2,0.8-0.2,1.2-0.1c0.4,0.1,0.8,0.3,1.1,0.5
	c0.3,0.3,0.5,0.6,0.6,1c0.1,0.4,0,0.8-0.1,1.2c-0.2,0.4-0.4,0.7-0.8,0.9c-0.3,0.2-0.7,0.3-1.1,0.3c-0.3,0-0.5,0-0.8-0.1
	c-0.2-0.1-0.5-0.2-0.7-0.4c-0.2-0.2-0.3-0.4-0.4-0.6C158.2,140.2,158.1,140,158.1,139.7z M161.3,139.7c0-0.2-0.1-0.4-0.2-0.6
	c-0.1-0.2-0.3-0.3-0.5-0.4c-0.2-0.1-0.4-0.1-0.6,0c-0.2,0.1-0.4,0.2-0.5,0.3c-0.1,0.2-0.2,0.4-0.3,0.6c0,0.2,0,0.4,0.1,0.6
	c0.1,0.2,0.2,0.4,0.4,0.5c0.2,0.1,0.4,0.2,0.6,0.2c0.2,0,0.3,0,0.4-0.1c0.1-0.1,0.3-0.2,0.4-0.3c0.1-0.1,0.2-0.2,0.2-0.4
	C161.3,140,161.3,139.9,161.3,139.7z"/>
<path class="st9" d="M165.3,137.8v0.9c-0.1,0-0.1,0-0.2,0c-0.2,0-0.3,0-0.5,0.1c-0.1,0.1-0.3,0.1-0.4,0.3c-0.1,0.1-0.2,0.2-0.2,0.4
	c0,0.1-0.1,0.3,0,0.5v1.9H163v-3.8h0.9v0.6c0.2-0.2,0.4-0.4,0.6-0.5C164.7,137.8,165,137.7,165.3,137.8z"/>
<path class="st19" d="M200,132.9h-11.7c-0.7,0-1.4,0.3-2,0.8c-0.5,0.5-0.8,1.2-0.8,2v5.7c0,0.7,0.3,1.4,0.8,2c0.5,0.5,1.2,0.8,2,0.8
	h3.1l2.3,5.3l3.3-5.3h3.1c0.7,0,1.4-0.3,2-0.8c0.5-0.5,0.8-1.2,0.8-2v-5.7c0-0.7-0.3-1.4-0.8-1.9C201.4,133.2,200.7,132.9,200,132.9
	z"/>
<path class="st9" d="M192.6,137.2h3.3v0.7h-3.3V137.2z M192.6,138.9h3.3v0.7h-3.3V138.9z"/>
<path class="st19" d="M113.5,126.3h-11.7c-0.7,0-1.4,0.3-2,0.8c-0.5,0.5-0.8,1.2-0.8,2v5.7c0,0.7,0.3,1.4,0.8,2
	c0.5,0.5,1.2,0.8,2,0.8h3.1l2.3,5.3l3.3-5.3h3.1c0.7,0,1.4-0.3,2-0.8c0.5-0.5,0.8-1.2,0.8-2v-5.7c0-0.4-0.1-0.7-0.2-1.1
	c-0.1-0.3-0.3-0.6-0.6-0.9c-0.3-0.3-0.6-0.5-0.9-0.6C114.2,126.4,113.8,126.3,113.5,126.3z"/>
<path class="st9" d="M104.8,128.7h1.7v0.7h-0.8v5.3h0.8v0.7h-1.7V128.7z"/>
<path class="st9" d="M108.8,135.4v-0.7h0.8v-5.3h-0.8v-0.7h1.7v6.7L108.8,135.4z"/>
<path class="st19" d="M148.3,125.7h-11.7c-0.7,0-1.4,0.3-2,0.8c-0.5,0.5-0.8,1.2-0.8,2v5.7c0,0.7,0.3,1.4,0.8,2
	c0.5,0.5,1.2,0.8,2,0.8h3.1l2.3,5.3l3.3-5.3h3.1c0.7,0,1.4-0.3,2-0.8c0.5-0.5,0.8-1.2,0.8-2v-5.7c0-0.7-0.3-1.4-0.8-2
	C149.8,126,149.1,125.7,148.3,125.7z"/>
<path class="st9" d="M140.1,131.4c0.3,0.1,0.4,0.3,0.4,0.7v1.4c0,0.1,0,0.2,0,0.2c0,0.1,0.1,0.1,0.1,0.2c0.1,0.1,0.1,0.1,0.2,0.1
	c0.1,0,0.2,0,0.2,0h0.1v0.7h-0.4c-0.2,0-0.3,0-0.5,0c-0.2,0-0.3-0.1-0.4-0.2c-0.1-0.1-0.2-0.3-0.3-0.4c-0.1-0.2-0.1-0.3-0.1-0.5
	v-1.5c0-0.2-0.1-0.3-0.3-0.3h-0.2v-0.7h0.2c0.2,0,0.3-0.1,0.3-0.3v-1.5c0-0.2,0-0.3,0.1-0.5c0.1-0.2,0.1-0.3,0.3-0.4
	c0.1-0.1,0.3-0.2,0.4-0.2c0.2,0,0.3-0.1,0.5,0h0.4v0.7h-0.1c-0.1,0-0.2,0-0.2,0c-0.1,0-0.1,0.1-0.2,0.1c-0.1,0.1-0.1,0.1-0.1,0.2
	c0,0.1,0,0.2,0,0.2v1.4C140.5,131.1,140.4,131.3,140.1,131.4z"/>
<path class="st9" d="M145.5,131.1v0.7h-0.2c-0.2,0-0.3,0.1-0.3,0.3v1.5c0,0.2,0,0.3-0.1,0.5c-0.1,0.2-0.1,0.3-0.3,0.4
	c-0.1,0.1-0.3,0.2-0.4,0.2c-0.2,0-0.3,0.1-0.5,0h-0.4v-0.7h0.2c0.1,0,0.2,0,0.2,0c0.1,0,0.1-0.1,0.2-0.1c0.1-0.1,0.1-0.1,0.1-0.2
	c0-0.1,0-0.2,0-0.2v-1.4c0-0.4,0.1-0.6,0.4-0.7c-0.3-0.1-0.4-0.3-0.4-0.7v-1.4c0-0.1,0-0.2,0-0.2c0-0.1-0.1-0.1-0.1-0.2
	c-0.1-0.1-0.1-0.1-0.2-0.1c-0.1,0-0.1,0-0.2,0h-0.2V128h0.4c0.2,0,0.3,0,0.5,0c0.2,0,0.3,0.1,0.4,0.2c0.1,0.1,0.2,0.3,0.3,0.4
	c0.1,0.2,0.1,0.3,0.1,0.5v1.5c0,0.2,0.1,0.3,0.3,0.3L145.5,131.1z"/>
<path class="st19" d="M182.8,124.6h-11.7c-0.7,0-1.4,0.3-2,0.8c-0.5,0.5-0.8,1.2-0.8,2v5.7c0,0.7,0.3,1.4,0.8,2
	c0.5,0.5,1.2,0.8,2,0.8h3.1l2.3,5.3l3.3-5.3h3.1c0.7,0,1.4-0.3,2-0.8c0.5-0.5,0.8-1.2,0.8-2v-5.7c0-0.7-0.3-1.4-0.8-1.9
	C184.3,124.9,183.6,124.6,182.8,124.6z"/>
<path class="st9" d="M176.5,128.8c0-0.1,0-0.2,0-0.2c0-0.1,0.1-0.1,0.1-0.2c0.1-0.1,0.1-0.1,0.2-0.1c0.1,0,0.2-0.1,0.2-0.1
	c0.1,0,0.2,0,0.2,0.1c0.1,0,0.1,0.1,0.2,0.1c0.1,0.1,0.1,0.1,0.1,0.2s0,0.2,0,0.2c0,0.1,0,0.2,0,0.2s-0.1,0.2-0.1,0.2
	c-0.1,0.1-0.1,0.1-0.2,0.1s-0.2,0.1-0.2,0.1c-0.1,0-0.2,0-0.2-0.1c-0.1,0-0.1-0.1-0.2-0.1c-0.1-0.1-0.1-0.1-0.1-0.2
	C176.5,129,176.5,128.9,176.5,128.8z M177.7,131.5c0,0.2-0.1,0.4-0.2,0.6l-0.4,1h-0.6l0.3-1.1c-0.1,0-0.2-0.1-0.3-0.2
	c-0.1-0.1-0.1-0.2-0.1-0.3c0-0.2,0.1-0.3,0.2-0.4c0.1-0.1,0.3-0.2,0.4-0.2c0.2,0,0.3,0.1,0.4,0.2
	C177.6,131.2,177.7,131.4,177.7,131.5L177.7,131.5z"/>
<path class="st19" d="M137,224.3h11.7c0.7,0,1.4-0.3,2-0.8c0.5-0.5,0.8-1.2,0.8-2v-5.7c0-0.7-0.3-1.4-0.8-2c-0.5-0.5-1.2-0.8-2-0.8
	h-3.1l-0.9-5.3l-4.7,5.3H137c-0.7,0-1.4,0.3-2,0.8c-0.5,0.5-0.8,1.2-0.8,2v5.7c0,0.7,0.3,1.4,0.8,2
	C135.5,224.1,136.2,224.3,137,224.3z"/>
<path class="st9" d="M141.1,217.6l-2.5,0.9l2.5,0.9v0.8l-3.3-1.3v-0.8l3.3-1.3V217.6z"/>
<path class="st9" d="M143.7,215h0.8l-2.4,6.7h-0.8L143.7,215z"/>
<path class="st9" d="M148,218.1v0.8l-3.3,1.3v-0.7l2.5-0.9l-2.5-0.9v-0.7L148,218.1z"/>
<path class="st19" d="M62.4,182.8h11.7c0.7,0,1.4-0.3,2-0.8c0.5-0.5,0.8-1.2,0.8-1.9v-5.7c0-0.7-0.3-1.4-0.8-2
	c-0.5-0.5-1.2-0.8-2-0.8h-3.1l0.7-5.3l-6.3,5.3h-3.1c-0.7,0-1.4,0.3-2,0.8c-0.5,0.5-0.8,1.2-0.8,2v5.7c0,0.7,0.3,1.4,0.8,1.9
	C61,182.5,61.7,182.8,62.4,182.8z"/>
<path class="st9" d="M65.9,179.2c0-0.1,0.1-0.3,0.2-0.4c0.1-0.1,0.2-0.2,0.4-0.2c0.1,0,0.3,0.1,0.4,0.2c0.1,0.1,0.2,0.2,0.2,0.4
	c0,0.1-0.1,0.3-0.2,0.4c-0.1,0.1-0.2,0.2-0.4,0.2c-0.1,0-0.3-0.1-0.4-0.2C65.9,179.5,65.9,179.3,65.9,179.2z M65.9,174.7H67
	l-0.2,3.3h-0.7L65.9,174.7z"/>
<path class="st9" d="M67.9,176h3.3v0.7h-3.3V176z M67.9,177.7h3.3v0.7h-3.3V177.7z"/>
<path class="st2" d="M250.2,176.3c0,2.2-0.2,4.4-0.6,6.6c-1.6,9.6-6.7,16.6-12.7,16.6c-0.5,0-1.1-0.1-1.6-0.2
	c-6.5-1.4-11.6-11.2-11.6-23.1c0-12.8,5.9-17.4,13.2-17.4C244.3,158.9,250.2,163.5,250.2,176.3z"/>
<defs>
	<filter id="Adobe_OpacityMaskFilter_2_" filterUnits="userSpaceOnUse" x="240.1" y="155" width="16" height="41.9">
		<feColorMatrix  type="matrix" values="1 0 0 0 0  0 1 0 0 0  0 0 1 0 0  0 0 0 1 0"/>
	</filter>
</defs>
<mask maskUnits="userSpaceOnUse" x="240.1" y="155" width="16" height="41.9" id="mask2_1216_35543_1_">
	<path class="st24" d="M251.4,176.3c0,2.2-0.2,4.4-0.6,6.6c-1.6,9.6-6.7,16.6-12.7,16.6c-0.5,0-1.1-0.1-1.6-0.2
		c-6.5-1.4-11.6-11.2-11.6-23.1c0-12.8,5.9-17.4,13.2-17.4C245.5,158.9,251.4,163.5,251.4,176.3z"/>
</mask>
<g class="st25">
	<path class="st0" d="M246.6,176.5c0.5,6.9-0.7,13.8-2.7,20.4c5-4.1,7.3-10.5,9.3-16.6c1.5-4.4,3-9,2.7-13.6
		c-0.3-4.7-2.8-9.5-7.1-11.1c-2.2-0.8-4.6-0.8-6.7,0.1c-3.7,1.5-1.7,2.7-0.1,5.3C244.7,165.7,246.3,171,246.6,176.5z"/>
	<path class="st13" d="M246.6,176.5c0.5,6.9-0.7,13.8-2.7,20.4c5-4.1,7.3-10.5,9.3-16.6c1.5-4.4,3-9,2.7-13.6
		c-0.3-4.7-2.8-9.5-7.1-11.1c-2.2-0.8-4.6-0.8-6.7,0.1c-3.7,1.5-1.7,2.7-0.1,5.3C244.7,165.7,246.3,171,246.6,176.5z"/>
</g>
<path class="st15" d="M250.2,176.3c0,2.2-0.2,4.4-0.6,6.6c-1.6,9.6-6.7,16.6-12.7,16.6c-0.5,0-1.1-0.1-1.6-0.2
	c-6.5-1.4-11.6-11.2-11.6-23.1c0-12.8,5.9-17.4,13.2-17.4C244.3,158.9,250.2,163.5,250.2,176.3z"/>
<path class="st2" d="M244.1,188.1c-0.9,3-2.4,5.7-4.3,8.1L244.1,188.1z"/>
<path class="st15" d="M244.1,188.1c-0.9,3-2.4,5.7-4.3,8.1"/>
<path class="st15" d="M244.5,186.5c-0.1,0.3-0.1,0.6-0.2,0.9"/>
<path class="st2" d="M244.5,176.3c0.7,3,0.8,6,0.3,9.1L244.5,176.3z"/>
<path class="st15" d="M244.5,176.3c0.7,3,0.8,6,0.3,9.1"/>
<path class="st15" d="M223.8,176.3c0,0,15-5.9,26.4,0"/>
<path class="st2" d="M237,158.9c0,0,1.5,5.6,1.7,14.6L237,158.9z"/>
<path class="st15" d="M237,158.9c0,0,1.5,5.6,1.7,14.6"/>
<path class="st22" d="M239.1,165.7c0.2,1.7-0.1,3.2-0.7,3.3c-0.6,0.1-1.2-1.2-1.4-3c-0.2-1.7,0.1-3.2,0.7-3.3
	C238.3,162.6,238.9,164,239.1,165.7z"/>
<path class="st15" d="M231.1,204h-17.6c-1,0-2.1-0.4-2.8-1.1c-0.8-0.7-1.3-1.6-1.4-2.7c0-0.2-0.1-0.4-0.1-0.6v-41.5
	c0-0.2,0-0.4,0.1-0.6c0.1-1,0.7-2,1.4-2.7c0.8-0.7,1.8-1.1,2.8-1.1h49.9c0.7,0,1.4,0.2,2.1,0.6"/>
</svg>
